<?xml version="1.0" encoding="UTF-8"?>
<svg version="1.1" xmlns="http://www.w3.org/2000/svg" width="287" height="176">
<path d="M0 0 C94.71 0 189.42 0 287 0 C287 58.08 287 116.16 287 176 C192.29 176 97.58 176 0 176 C0 117.92 0 59.84 0 0 Z " fill="#FDFDFD" transform="translate(0,0)"/>
<path d="M0 0 C5.21031273 -0.09980707 10.42005385 -0.17190561 15.63110352 -0.21972656 C17.39910593 -0.23968762 19.16704366 -0.26686652 20.93481445 -0.30175781 C44.16382256 -0.74834321 44.16382256 -0.74834321 52.6875 7.0625 C55.54519073 10.92536684 55.7902217 14.63303314 55.53125 19.33984375 C54.67704267 23.61716133 52.93588642 25.79100787 50 29 C49.01 29.66 48.02 30.32 47 31 C47.268125 31.53625 47.53625 32.0725 47.8125 32.625 C48.204375 33.40875 48.59625 34.1925 49 35 C49.53625 35.928125 50.0725 36.85625 50.625 37.8125 C52.94081335 43.18097639 52.48673268 47.29707194 50.375 52.625 C47.25079809 59.04818435 42.59921576 62.1102963 36.02734375 64.421875 C30.53623042 65.98774161 25.43434281 66.13213569 19.76171875 66.09765625 C18.88095169 66.0962413 18.00018463 66.09482635 17.09272766 66.09336853 C14.29094997 66.08778937 11.48925338 66.07524071 8.6875 66.0625 C6.78320428 66.05748231 4.87890731 66.05291987 2.97460938 66.04882812 C-1.68362481 66.03782677 -6.34179867 66.02057649 -11 66 C-10.69971304 63.12447919 -10.39429463 60.24965724 -10.0859375 57.375 C-10.00206787 56.56675781 -9.91819824 55.75851563 -9.83178711 54.92578125 C-9.35563555 50.52640905 -8.72650971 46.29649198 -7.625 42 C-5.66078731 34.2229142 -4.60128905 26.30621642 -3.44580078 18.375 C-2.53266272 12.17493162 -1.4473935 6.09835128 0 0 Z " fill="#28386E" transform="translate(15,87)"/>
<path d="M0 0 C1.6874269 0.00015917 3.37485866 0.00585622 5.06225586 0.01586914 C6.39189613 0.01799156 6.39189613 0.01799156 7.74839783 0.02015686 C10.59133215 0.02577324 13.43418892 0.03832848 16.27709961 0.05102539 C18.19962452 0.05603828 20.12215065 0.06060155 22.04467773 0.06469727 C26.7680151 0.07574798 31.49129419 0.09302356 36.21459961 0.11352539 C36.33113934 8.38113397 36.41963796 16.64839174 36.47366047 24.91662216 C36.49960634 28.75713135 36.53472322 32.59707312 36.59179688 36.43725586 C36.64666135 40.15261552 36.67613258 43.86743412 36.68898582 47.58316803 C36.69812938 48.99120842 36.71598106 50.39922371 36.74324989 51.80702972 C36.92618813 61.65531407 36.0401049 70.91475114 29.77973938 78.95672607 C28.40209961 80.36352539 28.40209961 80.36352539 26.21459961 82.11352539 C25.75239014 81.60563477 25.29018066 81.09774414 24.81396484 80.57446289 C19.78197191 75.26860733 14.63711423 71.65817515 8.27709961 68.11352539 C-4.44833646 60.70959313 -11.77462886 54.61792702 -17.09790039 40.67602539 C-19.01069355 30.76427902 -17.7748588 21.40476405 -13.78540039 12.11352539 C-5.70121673 0.17098135 -5.70121673 0.17098135 0 0 Z " fill="#F3651B" transform="translate(250.785400390625,-0.113525390625)"/>
<path d="M0 0 C16.83 0 33.66 0 51 0 C51 7 51 7 49 16 C38.11 16 27.22 16 16 16 C15.67 19.3 15.34 22.6 15 26 C25.23 26 35.46 26 46 26 C45 40 45 40 44 41 C41.6243148 41.0883967 39.27791326 41.11530305 36.90234375 41.09765625 C35.83905602 41.09553383 35.83905602 41.09553383 34.75428772 41.09336853 C32.48198288 41.08775443 30.20977525 41.07519963 27.9375 41.0625 C26.40039204 41.05748681 24.86328255 41.05292359 23.32617188 41.04882812 C19.55074358 41.03778042 15.77538829 41.02050641 12 41 C11.855625 42.093125 11.71125 43.18625 11.5625 44.3125 C11 48 11 48 10 51 C20.56 51 31.12 51 42 51 C40 64 40 64 39 66 C22.5 66 6 66 -11 66 C-10.071875 60.369375 -9.14375 54.73875 -8.1875 48.9375 C-7.90156982 47.19460693 -7.61563965 45.45171387 -7.32104492 43.65600586 C-6.13760672 36.49442514 -4.89934004 29.36204229 -3.42578125 22.25390625 C-1.97827414 14.88946595 -0.99193479 7.43951095 0 0 Z " fill="#28386F" transform="translate(164,87)"/>
<path d="M0 0 C0.65742188 0.433125 1.31484375 0.86625 1.9921875 1.3125 C1.9921875 5.3125 1.9921875 5.3125 0.49609375 7.1640625 C-0.46490234 8.04191406 -0.46490234 8.04191406 -1.4453125 8.9375 C-4.10371125 11.33946033 -4.10371125 11.33946033 -6.0078125 14.3125 C-8.73423238 13.83136708 -11.16813106 13.25055874 -13.7578125 12.25 C-19.12694369 10.70121216 -23.98559298 10.32202513 -29.0703125 12.8125 C-29.7096875 13.3075 -30.3490625 13.8025 -31.0078125 14.3125 C-30.6778125 15.9625 -30.3478125 17.6125 -30.0078125 19.3125 C-29.39035156 19.43367188 -28.77289063 19.55484375 -28.13671875 19.6796875 C-26.35965148 20.03131421 -24.58367009 20.38845687 -22.80859375 20.75 C-21.05949885 21.10128266 -19.30717625 21.43725558 -17.55078125 21.75 C-9.53441772 23.27952762 -4.88419047 26.9035461 -0.0078125 33.3125 C2.00927349 37.34667199 1.57445945 41.93698071 0.9921875 46.3125 C-1.38206695 52.53287145 -4.92541295 57.22993145 -10.84765625 60.3515625 C-11.56050781 60.66867188 -12.27335937 60.98578125 -13.0078125 61.3125 C-13.68972656 61.62960938 -14.37164062 61.94671875 -15.07421875 62.2734375 C-20.79942821 64.44403865 -26.51830884 64.61892039 -32.5703125 64.6875 C-33.36155518 64.70143799 -34.15279785 64.71537598 -34.96801758 64.72973633 C-42.71237146 64.6679484 -49.84868946 63.13856402 -55.5703125 57.625 C-56.23160156 57.00238281 -56.89289063 56.37976563 -57.57421875 55.73828125 C-58.04730469 55.26777344 -58.52039063 54.79726562 -59.0078125 54.3125 C-57.47137398 50.63180113 -55.22630305 48.32474796 -52.3828125 45.5625 C-51.56554687 44.76328125 -50.74828125 43.9640625 -49.90625 43.140625 C-49.27976562 42.53734375 -48.65328125 41.9340625 -48.0078125 41.3125 C-45.47903787 42.47962675 -43.49846554 43.70341107 -41.26953125 45.4140625 C-37.20003098 47.78265787 -34.41925805 47.84856906 -29.8203125 47.6875 C-28.75393555 47.68556641 -28.75393555 47.68556641 -27.66601562 47.68359375 C-23.9351127 47.6204176 -22.17859222 47.42635315 -19.0078125 45.3125 C-18.27437822 42.24693402 -18.27437822 42.24693402 -18.0078125 39.3125 C-18.57701416 39.20703857 -19.14621582 39.10157715 -19.73266602 38.99291992 C-22.34685805 38.50363832 -24.95851826 38.00191713 -27.5703125 37.5 C-28.46556641 37.33435547 -29.36082031 37.16871094 -30.28320312 36.99804688 C-42.88327301 34.55187946 -42.88327301 34.55187946 -47.3203125 29.875 C-47.8771875 29.029375 -48.4340625 28.18375 -49.0078125 27.3125 C-49.4203125 26.69375 -49.8328125 26.075 -50.2578125 25.4375 C-52.15769632 20.05449583 -51.02511429 14.71169384 -49.08984375 9.515625 C-45.50093268 2.20823928 -39.30441686 -1.20480264 -31.8046875 -3.796875 C-20.38207132 -6.4762541 -10.20583859 -5.97414942 0 0 Z " fill="#28386F" transform="translate(139.0078125,90.6875)"/>
<path d="M0 0 C3 2 3 2 4 5 C4.78392767 14.23914756 4.78988716 22.33413541 -1 30 C-6.23761796 35.91638082 -11.36014505 39.14373002 -19 41 C-20.485 41.495 -20.485 41.495 -22 42 C-32.14155214 42.81411542 -40.01416655 42.33057916 -49 37 C-49.34591237 29.87420522 -48.03590302 23.44062121 -46.5 16.5 C-46.26152344 15.39140625 -46.02304688 14.2828125 -45.77734375 13.140625 C-45.19216944 10.42541621 -44.59956201 7.71206134 -44 5 C-41.286261 5.50719042 -38.85537073 6.05475251 -36.265625 7.03515625 C-27.70614147 9.56409457 -16.12063216 9.68645348 -8.0625 5.6875 C-5.23340606 3.97772091 -2.62720148 2.00419621 0 0 Z " fill="#D3212B" transform="translate(276,83)"/>
<path d="M0 0 C12.87 0 25.74 0 39 0 C39 17.82 39 35.64 39 54 C37 51 37 51 36.0625 49.23828125 C31.60637329 41.16155159 24.31721402 36.54508976 16.8125 31.5 C8.78211192 25.94050056 3.01434675 18.8823514 0.25 9.4375 C-0.0710784 6.30698559 0 3.14693689 0 0 Z " fill="#FEFDFC" transform="translate(248,0)"/>
<path d="M0 0 C0.33 0 0.66 0 1 0 C1.12375 0.95519531 1.2475 1.91039063 1.375 2.89453125 C3.12035687 13.83573714 6.87725305 21.18185606 15 29 C13.48623919 32.56764285 11.39486871 34.83706287 8.6484375 37.546875 C7.37226563 38.81337891 7.37226563 38.81337891 6.0703125 40.10546875 C5.18085938 40.97816406 4.29140625 41.85085937 3.375 42.75 C2.4778125 43.63816406 1.580625 44.52632812 0.65625 45.44140625 C-1.55807004 47.63216969 -3.77692435 49.81812763 -6 52 C-9 51 -9 51 -10.1328125 48.85546875 C-10.46023437 47.97503906 -10.78765625 47.09460937 -11.125 46.1875 C-11.45757812 45.31480469 -11.79015625 44.44210938 -12.1328125 43.54296875 C-15.74731878 32.94367331 -14.39243061 22.22973972 -10 12 C-7.04431978 7.63365421 -3.72644336 3.72644336 0 0 Z " fill="#F6A811" transform="translate(247,0)"/>
<path d="M0 0 C3.75552873 1.43484565 6.63733075 3.01462705 9.8125 5.5 C10.60269531 6.1084375 11.39289063 6.716875 12.20703125 7.34375 C12.79871094 7.8903125 13.39039063 8.436875 14 9 C14 9.66 14 10.32 14 11 C12.33784732 12.33895632 10.67036393 13.67130142 9 15 C8.360625 15.804375 7.72125 16.60875 7.0625 17.4375 C5 20 5 20 2.0625 22.4375 C-0.20834693 24.33759641 -1.81750541 25.87258366 -3.625 28.125 C-5.66618426 30.59590726 -7.42894463 32.1666314 -10 34 C-11.43952597 32.89847594 -12.87654071 31.7936696 -14.3125 30.6875 C-15.11300781 30.07261719 -15.91351563 29.45773438 -16.73828125 28.82421875 C-18.62701374 27.30083693 -20.33077636 25.75565593 -22 24 C-20.4608199 20.33247995 -18.24514548 18.01419427 -15.4296875 15.234375 C-14.08583984 13.90019531 -14.08583984 13.90019531 -12.71484375 12.5390625 C-11.77769531 11.61867188 -10.84054688 10.69828125 -9.875 9.75 C-8.92011363 8.80515144 -7.96568141 7.85984367 -7.01171875 6.9140625 C-4.67890913 4.60481662 -2.34155914 2.30036797 0 0 Z " fill="#F48017" transform="translate(262,30)"/>
<path d="M0 0 C0.33 0 0.66 0 1 0 C1.19335938 1.03640625 1.38671875 2.0728125 1.5859375 3.140625 C1.84864867 4.51047609 2.11168671 5.88026452 2.375 7.25 C2.50132812 7.93191406 2.62765625 8.61382812 2.7578125 9.31640625 C3.43906367 12.82484976 4.16853415 15.91039673 6 19 C2.07486445 23.65297525 -2.00793165 28.13353082 -6.25 32.5 C-7.08015625 33.3559375 -7.9103125 34.211875 -8.765625 35.09375 C-11 37 -11 37 -14 37 C-14.85739816 25.32985842 -12.8094709 14.8915837 -5.3125 5.6875 C-3.5792347 3.74431386 -1.84055762 1.84055762 0 0 Z " fill="#F8BE0C" transform="translate(247,0)"/>
<path d="M0 0 C2.74452854 8.23358563 0.94722044 15.67861502 -2.5546875 23.3828125 C-4.34602482 26.62658549 -6.12065412 28.69652329 -9 31 C-9.54269531 30.44570312 -10.08539063 29.89140625 -10.64453125 29.3203125 C-11.35996094 28.59585938 -12.07539063 27.87140625 -12.8125 27.125 C-13.52019531 26.40570313 -14.22789062 25.68640625 -14.95703125 24.9453125 C-17.04399194 22.84641063 -17.04399194 22.84641063 -20 21 C-19.42897488 17.25608878 -17.9053201 15.53065411 -15.25390625 12.890625 C-14.49916016 12.13652344 -13.74441406 11.38242187 -12.96679688 10.60546875 C-12.17337891 9.82816406 -11.37996094 9.05085938 -10.5625 8.25 C-9.77294922 7.45722656 -8.98339844 6.66445313 -8.16992188 5.84765625 C-2.26690915 0 -2.26690915 0 0 0 Z " fill="#F14921" transform="translate(286,51)"/>
<path d="M0 0 C0.82886719 -0.020625 1.65773438 -0.04125 2.51171875 -0.0625 C3.30964844 -0.06765625 4.10757813 -0.0728125 4.9296875 -0.078125 C6.02772705 -0.09214355 6.02772705 -0.09214355 7.14794922 -0.10644531 C9.70113641 0.35387246 10.56976357 1.20556339 12.125 3.25 C12.63675389 6.68606183 12.61992888 8.49056367 10.70703125 11.42578125 C6.76717153 14.209313 3.06980773 13.68030281 -1.625 13.5 C-2.51316406 13.48195312 -3.40132812 13.46390625 -4.31640625 13.4453125 C-6.50370848 13.39827374 -8.68879816 13.33257009 -10.875 13.25 C-10.73466889 11.27043559 -10.5875877 9.29134859 -10.4375 7.3125 C-10.35628906 6.21035156 -10.27507813 5.10820312 -10.19140625 3.97265625 C-9.531604 -1.70490134 -4.66569116 0.02875619 0 0 Z " fill="#F5F5F7" transform="translate(35.875,125.75)"/>
<path d="M0 0 C0.99 0.33 1.98 0.66 3 1 C4.1875 4.0625 4.1875 4.0625 5 7 C4.45996338 7.5347998 3.91992676 8.06959961 3.36352539 8.62060547 C0.92725624 11.03613706 -1.50516107 13.45551117 -3.9375 15.875 C-5.21270508 17.13763672 -5.21270508 17.13763672 -6.51367188 18.42578125 C-7.32255859 19.23144531 -8.13144531 20.03710938 -8.96484375 20.8671875 C-9.7137085 21.61081543 -10.46257324 22.35444336 -11.23413086 23.12060547 C-13.06297703 24.8871676 -13.06297703 24.8871676 -14 27 C-19.75 25.375 -19.75 25.375 -22 22 C-21.57332031 21.64550781 -21.14664062 21.29101562 -20.70703125 20.92578125 C-15.95455817 16.87882995 -11.4812223 12.59162903 -7.0625 8.1875 C-6.48282471 7.61233643 -5.90314941 7.03717285 -5.3059082 6.44458008 C-2.28363778 3.50283852 -2.28363778 3.50283852 0 0 Z " fill="#F2581F" transform="translate(280,44)"/>
<path d="M0 0 C2.4375 1 2.4375 1 3.75 3.5625 C4.0903125 4.7690625 4.0903125 4.7690625 4.4375 6 C4.7675 4.02 5.0975 2.04 5.4375 0 C6.0975 0 6.7575 0 7.4375 0 C7.7675 1.65 8.0975 3.3 8.4375 5 C8.89125 4.34 9.345 3.68 9.8125 3 C10.616875 2.01 10.616875 2.01 11.4375 1 C12.0975 1 12.7575 1 13.4375 1 C14.0975 1.99 14.7575 2.98 15.4375 4 C16.4275 3.01 17.4175 2.02 18.4375 1 C18.7675 1.66 19.0975 2.32 19.4375 3 C20.4275 2.34 21.4175 1.68 22.4375 1 C25.625 0.875 25.625 0.875 28.4375 1 C28.1075 2.32 27.7775 3.64 27.4375 5 C26.9425 4.01 26.9425 4.01 26.4375 3 C25.4475 3 24.4575 3 23.4375 3 C23.1075 4.32 22.7775 5.64 22.4375 7 C24.0875 7 25.7375 7 27.4375 7 C27.4375 7.66 27.4375 8.32 27.4375 9 C23.20835156 11.11457422 17.65850194 10.18585828 13.00634766 10.18530273 C10.94542873 10.18749158 8.8850431 10.20565983 6.82421875 10.22460938 C5.53128906 10.22654297 4.23835938 10.22847656 2.90625 10.23046875 C1.71451172 10.23457764 0.52277344 10.23868652 -0.70507812 10.24291992 C-3.5625 10 -3.5625 10 -5.5625 8 C-5.93046448 5.12987704 -5.93759409 3.59225382 -4.375 1.125 C-2.5625 0 -2.5625 0 0 0 Z " fill="#CBCBCB" transform="translate(55.5625,166)"/>
<path d="M0 0 C1.18335938 0.00580078 1.18335938 0.00580078 2.390625 0.01171875 C3.17179687 0.00785156 3.95296875 0.00398438 4.7578125 0 C8.0922196 0.0057096 10.83169486 0.0754087 14.015625 1.13671875 C14.50019987 7.55733576 14.50019987 7.55733576 12.578125 9.85546875 C8.69574806 11.79665722 5.0383205 11.45440244 0.765625 11.32421875 C-0.07484375 11.31068359 -0.9153125 11.29714844 -1.78125 11.28320312 C-3.84923438 11.24795339 -5.91688771 11.19414895 -7.984375 11.13671875 C-7.84394623 9.49041547 -7.69688171 7.84467696 -7.546875 6.19921875 C-7.46566406 5.28269531 -7.38445313 4.36617188 -7.30078125 3.421875 C-6.67416501 -1.10368675 -4.02009293 0.00690738 0 0 Z " fill="#E6E8ED" transform="translate(36.984375,101.86328125)"/>
<path d="M0 0 C0.99 0 1.98 0 3 0 C2.67 2.97 2.34 5.94 2 9 C2.66 8.67 3.32 8.34 4 8 C4.165 6.845 4.33 5.69 4.5 4.5 C4.665 3.345 4.83 2.19 5 1 C5.66 0.67 6.32 0.34 7 0 C7 1.32 7 2.64 7 4 C7.804375 3.979375 8.60875 3.95875 9.4375 3.9375 C12 4 12 4 13 5 C13.25 7.9375 13.25 7.9375 13 11 C9.79593538 13.13604308 9.00399253 13.24208908 5.33203125 13.1953125 C4.43935547 13.18886719 3.54667969 13.18242187 2.62695312 13.17578125 C1.23379883 13.15064453 1.23379883 13.15064453 -0.1875 13.125 C-1.12787109 13.11597656 -2.06824219 13.10695312 -3.03710938 13.09765625 C-5.35818157 13.07409207 -7.67912289 13.03822121 -10 13 C-10.99 9.04 -11.98 5.08 -13 1 C-12.34 1 -11.68 1 -11 1 C-10.34 3.64 -9.68 6.28 -9 9 C-7.35 6.36 -5.7 3.72 -4 1 C-3.01 1.33 -2.02 1.66 -1 2 C-0.67 1.34 -0.34 0.68 0 0 Z " fill="#8C8D8E" transform="translate(138,163)"/>
<path d="M0 0 C1.32 0.66 2.64 1.32 4 2 C2.48623919 5.56764285 0.39486871 7.83706287 -2.3515625 10.546875 C-3.20234375 11.39121094 -4.053125 12.23554687 -4.9296875 13.10546875 C-5.81914062 13.97816406 -6.70859375 14.85085937 -7.625 15.75 C-8.5221875 16.63816406 -9.419375 17.52632812 -10.34375 18.44140625 C-12.55807004 20.63216969 -14.77692435 22.81812763 -17 25 C-17.99 24.67 -18.98 24.34 -20 24 C-19.51820956 19.45288289 -17.98577731 17.50933287 -14.74609375 14.35546875 C-13.46508789 13.09379883 -13.46508789 13.09379883 -12.15820312 11.80664062 C-11.26037109 10.94232422 -10.36253906 10.07800781 -9.4375 9.1875 C-8.53580078 8.30384766 -7.63410156 7.42019531 -6.70507812 6.50976562 C-4.47877434 4.33057938 -2.24367741 2.16127083 0 0 Z " fill="#F69812" transform="translate(258,27)"/>
<path d="M0 0 C2.0625 0.4375 2.0625 0.4375 4 1 C4.33 2.65 4.66 4.3 5 6 C2.69 6 0.38 6 -2 6 C-2 6.66 -2 7.32 -2 8 C-0.02 7.67 1.96 7.34 4 7 C4 7.66 4 8.32 4 9 C1.16970852 10.41514574 -1.28379133 10.20780992 -4.4375 10.25 C-5.59121094 10.27578125 -6.74492187 10.3015625 -7.93359375 10.328125 C-11 10 -11 10 -12.921875 8.61328125 C-14 7 -14 7 -13.8125 4.9375 C-13 3 -13 3 -11 1 C-7.5625 0.875 -7.5625 0.875 -4 1 C-3.01 1 -2.02 1 -1 1 C-0.67 0.67 -0.34 0.34 0 0 Z " fill="#D2D2D3" transform="translate(196,166)"/>
<path d="M0 0 C0.66 0 1.32 0 2 0 C2 0.99 2 1.98 2 3 C3.65 3.33 5.3 3.66 7 4 C7.33 5.32 7.66 6.64 8 8 C8.7425 7.154375 9.485 6.30875 10.25 5.4375 C11.61125 4.2309375 11.61125 4.2309375 13 3 C15.3125 3.1875 15.3125 3.1875 17 4 C17.33 5.32 17.66 6.64 18 8 C16.68 7.01 15.36 6.02 14 5 C13.34 5.66 12.68 6.32 12 7 C12 7.99 12 8.98 12 10 C13.65 10 15.3 10 17 10 C16.67 10.99 16.34 11.98 16 13 C13.37493198 13.02690844 10.75013827 13.04679404 8.125 13.0625 C7.37863281 13.07087891 6.63226563 13.07925781 5.86328125 13.08789062 C0.2265625 13.11328125 0.2265625 13.11328125 -2 12 C-1 3.42857143 -1 3.42857143 0 0 Z " fill="#C9CACA" transform="translate(12,163)"/>
<path d="M0 0 C0.33 0 0.66 0 1 0 C2.49650296 3.56858398 2.85027012 6.20431904 2 10 C-1.84235693 15.35129872 -7.04197217 19.70719827 -12 24 C-13.39184794 19.82445617 -12.10543414 17.73748314 -10.453125 13.78125 C-7.78707976 8.67849675 -4.07183998 4.07183998 0 0 Z " fill="#F9D115" transform="translate(247,0)"/>
<path d="M0 0 C2.14576637 -0.02685938 4.29162645 -0.04633088 6.4375 -0.0625 C7.63246094 -0.07410156 8.82742187 -0.08570313 10.05859375 -0.09765625 C13 0 13 0 14 1 C13.71269945 3.33944736 13.38063221 5.6739143 13 8 C9.71480525 9.09506492 7.26336585 9.09960608 3.8125 9.0625 C2.18248047 9.04896484 2.18248047 9.04896484 0.51953125 9.03515625 C-0.31191406 9.02355469 -1.14335937 9.01195312 -2 9 C-1.34 6.03 -0.68 3.06 0 0 Z " fill="#CECFCF" transform="translate(155,167)"/>
<path d="M0 0 C0.99 0 1.98 0 3 0 C2.67 2.31 2.34 4.62 2 7 C1.34 6.67 0.68 6.34 0 6 C-0.66 8.31 -1.32 10.62 -2 13 C-4.64 13 -7.28 13 -10 13 C-10.99 9.04 -11.98 5.08 -13 1 C-12.34 1 -11.68 1 -11 1 C-10.34 3.64 -9.68 6.28 -9 9 C-7.35 6.36 -5.7 3.72 -4 1 C-3.01 1.33 -2.02 1.66 -1 2 C-0.67 1.34 -0.34 0.68 0 0 Z " fill="#C9C9C9" transform="translate(138,163)"/>
<path d="M0 0 C2.375 0.75 2.375 0.75 3.375 1.75 C3.6875 4.125 3.6875 4.125 3.375 6.75 C1.625 8.625 1.625 8.625 -0.625 9.75 C-2.79468209 9.50203633 -4.06733607 9.30766393 -5.625 7.75 C-5.9232732 4.91640458 -5.98102594 3.31214622 -4.4375 0.875 C-2.625 -0.25 -2.625 -0.25 0 0 Z " fill="#8C8C8E" transform="translate(105.625,166.25)"/>
<path d="M0 0 C1.99954746 -0.04254356 4.00041636 -0.04080783 6 0 C6.33 0.33 6.66 0.66 7 1 C6.82364548 3.69082872 6.38164079 6.32851446 6 9 C3.36 9 0.72 9 -2 9 C-1.125 2.25 -1.125 2.25 0 0 Z " fill="#C2C2C3" transform="translate(173,167)"/>
<path d="M0 0 C6 0 6 0 8 1 C8.125 3.375 8.125 3.375 8 6 C6 8 6 8 2.875 8.125 C1.92625 8.08375 0.9775 8.0425 0 8 C0 9.32 0 10.64 0 12 C-0.66 12 -1.32 12 -2 12 C-1.34 8.04 -0.68 4.08 0 0 Z " fill="#777879" transform="translate(40,163)"/>
<path d="M0 0 C1.1446875 0.3403125 1.1446875 0.3403125 2.3125 0.6875 C2.9375 3 2.9375 3 3.3125 5.6875 C2.3225 7.1725 2.3225 7.1725 1.3125 8.6875 C-1.75 8.9375 -1.75 8.9375 -4.6875 8.6875 C-5.6875 7.6875 -5.6875 7.6875 -5.9375 5.3125 C-5.6875 2.6875 -5.6875 2.6875 -4.5 0.8125 C-2.6875 -0.3125 -2.6875 -0.3125 0 0 Z " fill="#838485" transform="translate(55.6875,166.3125)"/>
<path d="M0 0 C0.66 2.64 1.32 5.28 2 8 C-2.62 8 -7.24 8 -12 8 C-11.34 7.67 -10.68 7.34 -10 7 C-10 5.68 -10 4.36 -10 3 C-8.88625 2.690625 -7.7725 2.38125 -6.625 2.0625 C-4.83694148 1.53841388 -1.937924 0 0 0 Z " fill="#F7F7F8" transform="translate(50,168)"/>
<path d="M0 0 C0.598125 0.226875 1.19625 0.45375 1.8125 0.6875 C2.1425 2.3375 2.4725 3.9875 2.8125 5.6875 C0.5025 5.6875 -1.8075 5.6875 -4.1875 5.6875 C-4.1875 6.3475 -4.1875 7.0075 -4.1875 7.6875 C-2.2075 7.3575 -0.2275 7.0275 1.8125 6.6875 C1.8125 7.3475 1.8125 8.0075 1.8125 8.6875 C-0.1789056 9.06883299 -2.18029077 9.40075582 -4.1875 9.6875 C-5.1875 8.6875 -5.1875 8.6875 -5.4375 5.8125 C-5.1875 2.6875 -5.1875 2.6875 -3.9375 0.75 C-2.1875 -0.3125 -2.1875 -0.3125 0 0 Z " fill="#A2A3A4" transform="translate(198.1875,166.3125)"/>
<path d="M0 0 C0.66 0 1.32 0 2 0 C2.33 1.65 2.66 3.3 3 5 C3.66 5 4.32 5 5 5 C4.625 6.9375 4.625 6.9375 4 9 C1.35541621 10.32229189 -0.67761301 10.09677194 -3.625 10.0625 C-4.62789062 10.05347656 -5.63078125 10.04445312 -6.6640625 10.03515625 C-7.43492188 10.02355469 -8.20578125 10.01195312 -9 10 C-9 9.67 -9 9.34 -9 9 C-8.21625 8.87625 -7.4325 8.7525 -6.625 8.625 C-3.85942178 8.20882007 -3.85942178 8.20882007 -2 6 C-1.67 6 -1.34 6 -1 6 C-0.67 4.02 -0.34 2.04 0 0 Z " fill="#CACBCB" transform="translate(61,166)"/>
<path d="M0 0 C0.66 0 1.32 0 2 0 C2 0.99 2 1.98 2 3 C3.65 3.33 5.3 3.66 7 4 C7.125 6.875 7.125 6.875 7 10 C6.34 10.66 5.68 11.32 5 12 C5 9.69 5 7.38 5 5 C3.68 5 2.36 5 1 5 C0.67 7.31 0.34 9.62 0 12 C-0.66 12 -1.32 12 -2 12 C-1 3.42857143 -1 3.42857143 0 0 Z " fill="#8E8E90" transform="translate(12,163)"/>
<path d="M0 0 C3.3 0 6.6 0 10 0 C10 0.66 10 1.32 10 2 C8.35 2 6.7 2 5 2 C4.67 5.3 4.34 8.6 4 12 C3.34 12 2.68 12 2 12 C2.33 9.03 2.66 6.06 3 3 C2.01 2.67 1.02 2.34 0 2 C0 1.34 0 0.68 0 0 Z " fill="#9C9C9D" transform="translate(0,163)"/>
<path d="M0 0 C0.66 1.32 1.32 2.64 2 4 C2.66 4 3.32 4 4 4 C4 4.99 4 5.98 4 7 C4.99 7.33 5.98 7.66 7 8 C4.03 8 1.06 8 -2 8 C-1.125 1.125 -1.125 1.125 0 0 Z " fill="#CBCBCC" transform="translate(138,168)"/>
<path d="M0 0 C0 1.65 0 3.3 0 5 C-1.65 5.33 -3.3 5.66 -5 6 C-5.33 4.35 -5.66 2.7 -6 1 C-4 0 -4 0 0 0 Z " fill="#F1F1F2" transform="translate(150,168)"/>
<path d="M0 0 C1.32 0 2.64 0 4 0 C4 1.65 4 3.3 4 5 C2.35 5.33 0.7 5.66 -1 6 C-1.625 4.125 -1.625 4.125 -2 2 C-1.34 1.34 -0.68 0.68 0 0 Z " fill="#F3F3F4" transform="translate(53,168)"/>
<path d="M0 0 C0.66 0 1.32 0 2 0 C2.66 0.99 3.32 1.98 4 3 C4.99 2.01 5.98 1.02 7 0 C6.37240135 2.92879371 5.41377341 5.36095629 4 8 C3.34 8 2.68 8 2 8 C1.67 6.68 1.34 5.36 1 4 C0.34 4 -0.32 4 -1 4 C-0.67 2.68 -0.34 1.36 0 0 Z " fill="#898A8B" transform="translate(67,167)"/>
<path d="M0 0 C1.32 0 2.64 0 4 0 C4 1.65 4 3.3 4 5 C2.35 5.33 0.7 5.66 -1 6 C-1.042721 4.33388095 -1.04063832 2.66617115 -1 1 C-0.67 0.67 -0.34 0.34 0 0 Z " fill="#FAFAFA" transform="translate(103,168)"/>
<path d="M0 0 C1.65 0 3.3 0 5 0 C5 1.32 5 2.64 5 4 C4 5 4 5 1.4375 5.0625 C0.2309375 5.0315625 0.2309375 5.0315625 -1 5 C-0.67 3.35 -0.34 1.7 0 0 Z " fill="#EEEEEE" transform="translate(41,165)"/>
<path d="M0 0 C0.99 0.33 1.98 0.66 3 1 C2.01 1.495 2.01 1.495 1 2 C1.33 2.99 1.66 3.98 2 5 C1.01 5 0.02 5 -1 5 C-1.33 7.31 -1.66 9.62 -2 12 C-2.33 12 -2.66 12 -3 12 C-3.36923077 4.61538462 -3.36923077 4.61538462 -1.5 1.5 C-1.005 1.005 -0.51 0.51 0 0 Z " fill="#828385" transform="translate(115,163)"/>
<path d="M0 0 C0.226875 0.639375 0.45375 1.27875 0.6875 1.9375 C1.85250896 4.27193661 1.85250896 4.27193661 4.625 4.75 C5.40875 4.8325 6.1925 4.915 7 5 C7 5.33 7 5.66 7 6 C3.37 6 -0.26 6 -4 6 C-1.125 1.125 -1.125 1.125 0 0 Z " fill="#ECECED" transform="translate(21,170)"/>
<path d="M0 0 C0.33 0.66 0.66 1.32 1 2 C0.01 3.485 0.01 3.485 -1 5 C-2.32 5 -3.64 5 -5 5 C-5.33 4.01 -5.66 3.02 -6 2 C-4.02 1.34 -2.04 0.68 0 0 Z " fill="#C7C7C8" transform="translate(167,169)"/>
<path d="M0 0 C1.35432675 1.31200404 2.68733482 2.64631404 4 4 C4 4.33 4 4.66 4 5 C1.69 5 -0.62 5 -3 5 C-1.125 1.125 -1.125 1.125 0 0 Z " fill="#CECECF" transform="translate(26,167)"/>
<path d="M0 0 C1.9375 0.3125 1.9375 0.3125 4 1 C4.33 1.99 4.66 2.98 5 4 C3.02 4 1.04 4 -1 4 C-0.67 2.68 -0.34 1.36 0 0 Z " fill="#C8C8C9" transform="translate(79,168)"/>
<path d="M0 0 C1.65 0 3.3 0 5 0 C4.54625 0.391875 4.0925 0.78375 3.625 1.1875 C1.72357081 3.30832487 0.93795972 5.33042235 0 8 C-0.98120464 4.94736336 -0.98120464 3.05263664 0 0 Z " fill="#818283" transform="translate(155,167)"/>
</svg>
