<?xml version="1.0" encoding="UTF-8"?>
<svg version="1.1" xmlns="http://www.w3.org/2000/svg" width="225" height="225">
<path d="M0 0 C74.25 0 148.5 0 225 0 C225 74.25 225 148.5 225 225 C150.75 225 76.5 225 0 225 C0 150.75 0 76.5 0 0 Z " fill="#EC1A3B" transform="translate(0,0)"/>
<path d="M0 0 C60.39 0 120.78 0 183 0 C183 9.9 183 19.8 183 30 C182.01 30 181.02 30 180 30 C179.81824219 29.11957031 179.63648438 28.23914063 179.44921875 27.33203125 C179.07216797 25.58986328 179.07216797 25.58986328 178.6875 23.8125 C178.44386719 22.66394531 178.20023438 21.51539062 177.94921875 20.33203125 C176.34174108 14.68932155 173.88044862 11.27241777 169.06640625 8.06640625 C161.56711873 4.19626354 152.06569911 4.62043839 144 4 C144 37.33 144 70.66 144 105 C149.61 105.66 155.22 106.32 161 107 C161 107.66 161 108.32 161 109 C144.17 109 127.34 109 110 109 C110 108.34 110 107.68 110 107 C110.89203125 106.86722656 111.7840625 106.73445313 112.703125 106.59765625 C114.45882812 106.33275391 114.45882812 106.33275391 116.25 106.0625 C117.99023438 105.80146484 117.99023438 105.80146484 119.765625 105.53515625 C123.14788904 105.02034376 123.14788904 105.02034376 127 104 C127 71 127 38 127 4 C112.49394008 4.34111792 112.49394008 4.34111792 100.05859375 10.83203125 C95.3881117 16.71796405 93.88730474 22.60579383 93 30 C92.01 30 91.02 30 90 30 C89.83564453 28.82244141 89.83564453 28.82244141 89.66796875 27.62109375 C88.68936939 17.67873263 88.68936939 17.67873263 83.37890625 9.76171875 C73.78904626 4.45545819 62.83686671 4.68549096 52.1875 4.75 C50.89134766 4.74226563 49.59519531 4.73453125 48.25976562 4.7265625 C46.38901367 4.73042969 46.38901367 4.73042969 44.48046875 4.734375 C42.79280396 4.73775879 42.79280396 4.73775879 41.07104492 4.74121094 C37.58255893 4.88459858 37.58255893 4.88459858 33 7 C32.67 21.19 32.34 35.38 32 50 C38.5278125 49.8453125 38.5278125 49.8453125 45.1875 49.6875 C46.55156982 49.66260498 47.91563965 49.63770996 49.32104492 49.61206055 C50.94683472 49.56239136 50.94683472 49.56239136 52.60546875 49.51171875 C54.26292114 49.47244263 54.26292114 49.47244263 55.95385742 49.43237305 C59.31276287 48.95560607 61.197266 47.84891273 64 46 C64.66 46 65.32 46 66 46 C66.66 41.05 67.32 36.1 68 31 C69.32 31 70.64 31 72 31 C72 44.86 72 58.72 72 73 C70.68 73 69.36 73 68 73 C67.97421875 72.18015625 67.9484375 71.3603125 67.921875 70.515625 C67.83679688 68.89914063 67.83679688 68.89914063 67.75 67.25 C67.70359375 66.18265625 67.6571875 65.1153125 67.609375 64.015625 C66.88336053 60.42278414 65.85627727 59.23081509 63 57 C59.6978772 55.8992924 57.05916721 55.79372928 53.58203125 55.68359375 C52.32841797 55.64169922 51.07480469 55.59980469 49.78320312 55.55664062 C48.47287109 55.51732422 47.16253906 55.47800781 45.8125 55.4375 C44.47720022 55.39429008 43.14191348 55.350675 41.80664062 55.30664062 C38.53786703 55.20043498 35.26901667 55.09839003 32 55 C32.11743023 61.37221079 32.24226447 67.74424528 32.37231445 74.11621094 C32.41569919 76.28512256 32.45737161 78.45406913 32.49731445 80.62304688 C32.55493139 83.73578435 32.61865038 86.84834535 32.68359375 89.9609375 C32.70030624 90.934935 32.71701874 91.9089325 32.73423767 92.91244507 C32.7641555 94.26361923 32.7641555 94.26361923 32.79467773 95.64208984 C32.81799416 96.83455826 32.81799416 96.83455826 32.84178162 98.05111694 C32.88441725 100.07997774 32.88441725 100.07997774 34 102 C39.5761675 104.08461744 44.77374045 104.35126586 50.6875 104.3125 C52.01370361 104.30512817 52.01370361 104.30512817 53.36669922 104.29760742 C64.41101951 104.10056786 75.86170266 101.88566343 84.625 94.66015625 C88.25082812 90.76454925 89.62964109 86.01350819 91 81 C91.66 81 92.32 81 93 81 C93 90.24 93 99.48 93 109 C62.31 109 31.62 109 0 109 C0 108.34 0 107.68 0 107 C0.75925781 106.86722656 1.51851562 106.73445313 2.30078125 106.59765625 C3.79158203 106.33275391 3.79158203 106.33275391 5.3125 106.0625 C6.79169922 105.80146484 6.79169922 105.80146484 8.30078125 105.53515625 C11.08189213 105.04253153 11.08189213 105.04253153 14 104 C14 71.33 14 38.66 14 5 C8.90358688 3.30119563 5.20186922 2.5381244 0 2 C0 1.34 0 0.68 0 0 Z " fill="#FBFAFA" transform="translate(21,58)"/>
<path d="M0 0 C1.06863281 0.01804688 2.13726562 0.03609375 3.23828125 0.0546875 C4.04652344 0.07789063 4.85476562 0.10109375 5.6875 0.125 C5.0275 1.445 4.3675 2.765 3.6875 4.125 C4.3475 4.125 5.0075 4.125 5.6875 4.125 C5.57984737 15.73870479 5.46718358 27.35234919 5.34816074 38.96594334 C5.29304759 44.35886717 5.23964648 49.75179652 5.19018555 55.14477539 C5.14237038 60.35138962 5.09002202 65.55794051 5.03455925 70.76447868 C5.01421321 72.74872188 4.9954877 74.73298239 4.97842598 76.71725655 C4.95420962 79.50110233 4.92417965 82.28483025 4.89282227 85.06860352 C4.88418907 86.29320282 4.88418907 86.29320282 4.87538147 87.5425415 C4.8291661 91.1632449 4.63099667 94.47412143 4.04966736 98.06602478 C3.87039452 99.58021751 3.87039452 99.58021751 3.6875 101.125 C4.3475 101.785 5.0075 102.445 5.6875 103.125 C5.6875 103.785 5.6875 104.445 5.6875 105.125 C9.1525 105.62 9.1525 105.62 12.6875 106.125 C12.6875 106.455 12.6875 106.785 12.6875 107.125 C2.4575 107.125 -7.7725 107.125 -18.3125 107.125 C-14.3125 104.125 -14.3125 104.125 -10.3125 103.125 C-10.6425 69.795 -10.9725 36.465 -11.3125 2.125 C-6.73996031 0.29598412 -4.71088207 -0.10353587 0 0 Z " fill="#FDFCFC" transform="translate(158.3125,58.875)"/>
<path d="M0 0 C1.26092972 0.00212242 1.26092972 0.00212242 2.54733276 0.00428772 C5.23732025 0.00989388 7.92722509 0.02244739 10.6171875 0.03515625 C12.43880088 0.04017046 14.26041557 0.0447335 16.08203125 0.04882812 C20.55214094 0.05901525 25.02207149 0.0785894 29.4921875 0.09765625 C29.4921875 9.99765625 29.4921875 19.89765625 29.4921875 30.09765625 C28.5021875 30.09765625 27.5121875 30.09765625 26.4921875 30.09765625 C26.31042969 29.21722656 26.12867188 28.33679688 25.94140625 27.4296875 C25.69003906 26.26824219 25.43867188 25.10679688 25.1796875 23.91015625 C24.93605469 22.76160156 24.69242187 21.61304687 24.44140625 20.4296875 C22.83392858 14.7869778 20.37263612 11.37007402 15.55859375 8.1640625 C8.05930623 4.29391979 -1.44211339 4.71809464 -9.5078125 4.09765625 C-9.5078125 37.42765625 -9.5078125 70.75765625 -9.5078125 105.09765625 C-3.8978125 105.75765625 1.7121875 106.41765625 7.4921875 107.09765625 C7.4921875 107.75765625 7.4921875 108.41765625 7.4921875 109.09765625 C-9.3378125 109.09765625 -26.1678125 109.09765625 -43.5078125 109.09765625 C-43.5078125 108.43765625 -43.5078125 107.77765625 -43.5078125 107.09765625 C-41.55016867 106.9030892 -39.59165929 106.71721378 -37.6328125 106.53515625 C-35.99699219 106.37853516 -35.99699219 106.37853516 -34.328125 106.21875 C-31.5078125 106.09765625 -31.5078125 106.09765625 -29.5078125 107.09765625 C-26.83029832 107.19575483 -24.18471533 107.23669595 -21.5078125 107.22265625 C-20.40179688 107.22845703 -20.40179688 107.22845703 -19.2734375 107.234375 C-15.26059609 107.31183037 -15.26059609 107.31183037 -11.5078125 106.09765625 C-11.5078125 105.43765625 -11.5078125 104.77765625 -11.5078125 104.09765625 C-12.9928125 103.10765625 -12.9928125 103.10765625 -14.5078125 102.09765625 C-13.8478125 102.09765625 -13.1878125 102.09765625 -12.5078125 102.09765625 C-12.49750504 101.01517105 -12.48719757 99.93268585 -12.47657776 98.81739807 C-12.37862075 88.59242793 -12.27586672 78.36751562 -12.16847324 68.14264011 C-12.11342019 62.88653623 -12.06002942 57.63042663 -12.01049805 52.37426758 C-11.96259331 47.2973213 -11.91024305 42.22043818 -11.85487175 37.14356804 C-11.83456588 35.21121745 -11.81583431 33.27884963 -11.79873848 31.34646797 C-11.77443178 28.63008558 -11.74441616 25.91381961 -11.71313477 23.19750977 C-11.7073793 22.40700226 -11.70162384 21.61649475 -11.69569397 20.80203247 C-11.62685309 15.50776483 -11.15905548 10.35294454 -10.5078125 5.09765625 C-11.1678125 5.09765625 -11.8278125 5.09765625 -12.5078125 5.09765625 C-9.77385672 -0.95610298 -6.10185844 -0.0383654 0 0 Z " fill="#FBE5E4" transform="translate(174.5078125,57.90234375)"/>
<path d="M0 0 C0.33 0 0.66 0 1 0 C1.33 32.01 1.66 64.02 2 97 C2.66 97.33 3.32 97.66 4 98 C3.34 99.65 2.68 101.3 2 103 C3.31266846 102.96447021 4.62533691 102.92894043 5.9777832 102.89233398 C54.68185324 101.60035513 54.68185324 101.60035513 77 103 C76.67 101.68 76.34 100.36 76 99 C73.6739143 98.61936779 71.33944736 98.28730055 69 98 C68.67 98.33 68.34 98.66 68 99 C66.19072719 99.12487758 64.37603893 99.17570846 62.5625 99.1875 C61.57378906 99.20167969 60.58507812 99.21585937 59.56640625 99.23046875 C57 99 57 99 55 97 C55.64066406 96.78085938 56.28132813 96.56171875 56.94140625 96.3359375 C64.25065083 93.65624426 69.73964158 90.69191875 73.875 83.9375 C74.89640932 81.27048679 75.58519549 78.82067068 76 76 C76.66 76 77.32 76 78 76 C78 85.24 78 94.48 78 104 C47.31 104 16.62 104 -15 104 C-15 103.34 -15 102.68 -15 102 C-14.24074219 101.86722656 -13.48148438 101.73445313 -12.69921875 101.59765625 C-11.20841797 101.33275391 -11.20841797 101.33275391 -9.6875 101.0625 C-8.20830078 100.80146484 -8.20830078 100.80146484 -6.69921875 100.53515625 C-3.91810787 100.04253153 -3.91810787 100.04253153 -1 99 C-0.67 66.33 -0.34 33.66 0 0 Z M67 94 C66.34 94.66 65.68 95.32 65 96 C67.475 96.495 67.475 96.495 70 97 C70 96.01 70 95.02 70 94 C69.01 94 68.02 94 67 94 Z " fill="#FDE5EA" transform="translate(36,63)"/>
<path d="M0 0 C4.52061442 -0.11668418 9.04083847 -0.18741645 13.5625 -0.25 C14.83931641 -0.28351563 16.11613281 -0.31703125 17.43164062 -0.3515625 C24.45108849 -0.42449183 29.4051614 -0.47587088 35 4 C35.9375 6.25 35.9375 6.25 36 8 C34.3125 8.8125 34.3125 8.8125 32 9 C31.38125 8.195625 30.7625 7.39125 30.125 6.5625 C26.7906152 3.05557265 22.95452057 3.34244432 18.34643555 3.20776367 C17.13898682 3.20107666 15.93153809 3.19438965 14.6875 3.1875 C10.830625 3.125625 6.97375 3.06375 3 3 C3 17.52 3 32.04 3 47 C12.9 47.33 22.8 47.66 33 48 C28.10588284 50.44705858 24.61394973 50.33204792 19.25 50.3125 C17.94675781 50.33666992 17.94675781 50.33666992 16.6171875 50.36132812 C10.74097421 50.3657397 6.33753237 49.5042532 1 47 C-0.1760003 44.6479994 -0.12084541 43.26265599 -0.11352539 40.64208984 C-0.11344986 39.74130707 -0.11337433 38.84052429 -0.11329651 37.91244507 C-0.10813522 36.93844757 -0.10297394 35.96445007 -0.09765625 34.9609375 C-0.0962413 33.96494537 -0.09482635 32.96895325 -0.09336853 31.94277954 C-0.08775936 28.75348947 -0.0752053 25.56426894 -0.0625 22.375 C-0.05748618 20.21614685 -0.05292307 18.05729259 -0.04882812 15.8984375 C-0.03778695 10.5989345 -0.02103988 5.29947222 0 0 Z " fill="#E41A35" transform="translate(53,113)"/>
<path d="M0 0 C0 33 0 66 0 100 C-1.98 100.495 -1.98 100.495 -4 101 C-4.495 100.01 -4.495 100.01 -5 99 C-4.01 99 -3.02 99 -2 99 C-2 66.66 -2 34.32 -2 1 C-10.75076765 2.26912856 -10.75076765 2.26912856 -19 5 C-21.125 4.0625 -21.125 4.0625 -23 3 C-14.49279086 -0.52022447 -10.20038149 0 0 0 Z " fill="#C9405B" transform="translate(148,62)"/>
<path d="M0 0 C0.66 0 1.32 0 2 0 C2 13.2 2 26.4 2 40 C7.94 40 13.88 40 20 40 C21.32 40.33 22.64 40.66 24 41 C25.99963028 41.03845443 28.00051633 41.04544281 30 41 C26.60409791 44.13217778 24.25487922 44.35738037 19.703125 44.29296875 C18.49785156 44.28330078 17.29257813 44.27363281 16.05078125 44.26367188 C14.79652344 44.23853516 13.54226562 44.21339844 12.25 44.1875 C10.98027344 44.17396484 9.71054687 44.16042969 8.40234375 44.14648438 C5.26780156 44.1111324 2.13411455 44.06178248 -1 44 C-1.02464513 37.8944529 -1.04283371 31.78893449 -1.05493164 25.68334961 C-1.05997288 23.60456844 -1.06680574 21.52579084 -1.07543945 19.44702148 C-1.08751422 16.46597414 -1.09323024 13.48497351 -1.09765625 10.50390625 C-1.10539818 9.10078941 -1.10539818 9.10078941 -1.11329651 7.66932678 C-1.11337204 6.80850998 -1.11344757 5.94769318 -1.11352539 5.06079102 C-1.115746 4.29912125 -1.11796661 3.53745148 -1.12025452 2.75270081 C-1 1 -1 1 0 0 Z " fill="#DA3D56" transform="translate(54,64)"/>
<path d="M0 0 C0.89589844 0.00322266 1.79179687 0.00644531 2.71484375 0.00976562 C4.12056641 0.02233398 4.12056641 0.02233398 5.5546875 0.03515625 C6.49957031 0.03966797 7.44445312 0.04417969 8.41796875 0.04882812 C10.7552352 0.0606325 13.09246919 0.07856826 15.4296875 0.09765625 C15.4296875 6.36765625 15.4296875 12.63765625 15.4296875 19.09765625 C14.7696875 19.42765625 14.1096875 19.75765625 13.4296875 20.09765625 C13.40777344 19.3809375 13.38585937 18.66421875 13.36328125 17.92578125 C11.97386803 13.71684748 9.0888694 12.22880938 5.4921875 9.84765625 C4.84572266 9.40164062 4.19925781 8.955625 3.53320312 8.49609375 C1.21821648 6.90949854 -1.05690469 5.35436016 -3.5703125 4.09765625 C-3.5703125 3.43765625 -3.5703125 2.77765625 -3.5703125 2.09765625 C-4.5603125 1.76765625 -5.5503125 1.43765625 -6.5703125 1.09765625 C-4.16971433 -0.10264283 -2.67670601 -0.01694118 0 0 Z " fill="#FBFBFA" transform="translate(187.5703125,58.90234375)"/>
<path d="M0 0 C0.33 0 0.66 0 1 0 C1.33 30.03 1.66 60.06 2 91 C7.61 91.66 13.22 92.32 19 93 C19 93.66 19 94.32 19 95 C2.17 95 -14.66 95 -32 95 C-32 94.34 -32 93.68 -32 93 C-30.04235617 92.80543295 -28.08384679 92.61955753 -26.125 92.4375 C-24.48917969 92.28087891 -24.48917969 92.28087891 -22.8203125 92.12109375 C-20 92 -20 92 -18 93 C-15.32248582 93.09809858 -12.67690283 93.1390397 -10 93.125 C-8.89398438 93.13080078 -8.89398438 93.13080078 -7.765625 93.13671875 C-3.75278359 93.21417412 -3.75278359 93.21417412 0 92 C0 91.34 0 90.68 0 90 C-1.485 89.01 -1.485 89.01 -3 88 C-2.34 88 -1.68 88 -1 88 C-0.67 58.96 -0.34 29.92 0 0 Z " fill="#F8FBF7" transform="translate(163,72)"/>
<path d="M0 0 C0.66 0 1.32 0 2 0 C2 8.91 2 17.82 2 27 C1.34 25.68 0.68 24.36 0 23 C-3.51381119 22.09308537 -3.51381119 22.09308537 -7 22 C-7.33 22.33 -7.66 22.66 -8 23 C-9.80927281 23.12487758 -11.62396107 23.17570846 -13.4375 23.1875 C-14.42621094 23.20167969 -15.41492188 23.21585938 -16.43359375 23.23046875 C-19 23 -19 23 -21 21 C-20.35933594 20.78085938 -19.71867187 20.56171875 -19.05859375 20.3359375 C-11.74934917 17.65624426 -6.26035842 14.69191875 -2.125 7.9375 C-1.10359068 5.27048679 -0.41480451 2.82067068 0 0 Z M-9 18 C-9.66 18.66 -10.32 19.32 -11 20 C-8.525 20.495 -8.525 20.495 -6 21 C-6 20.01 -6 19.02 -6 18 C-6.99 18 -7.98 18 -9 18 Z " fill="#F9F7F6" transform="translate(112,139)"/>
<path d="M0 0 C0.76316528 0.00359528 1.52633057 0.00719055 2.31262207 0.01089478 C3.51253029 0.01067574 3.51253029 0.01067574 4.73667908 0.01045227 C7.39344958 0.01115161 10.05015086 0.01894498 12.70690918 0.02676392 C14.54393984 0.02862802 16.38097099 0.03005196 18.21800232 0.03105164 C23.06284955 0.03487742 27.90766701 0.04470821 32.75250244 0.05575562 C37.69237871 0.06596845 42.63225978 0.07054898 47.57214355 0.07559204 C57.27202646 0.08633042 66.97188722 0.10340756 76.67175293 0.12442017 C76.67175293 0.45442017 76.67175293 0.78442017 76.67175293 1.12442017 C75.71913574 1.17340454 74.76651855 1.22238892 73.78503418 1.27285767 C72.53077637 1.34762329 71.27651855 1.42238892 69.98425293 1.49942017 C68.12220215 1.60383423 68.12220215 1.60383423 66.22253418 1.71035767 C62.94711403 2.09230985 60.67063751 2.85092124 57.67175293 4.12442017 C55.33967273 4.20088181 53.00329415 4.21585315 50.67175293 4.12442017 C50.67175293 3.79442017 50.67175293 3.46442017 50.67175293 3.12442017 C53.64175293 2.62942017 53.64175293 2.62942017 56.67175293 2.12442017 C37.53175293 2.12442017 18.39175293 2.12442017 -1.32824707 2.12442017 C1.31175293 2.78442017 3.95175293 3.44442017 6.67175293 4.12442017 C6.67175293 4.78442017 6.67175293 5.44442017 6.67175293 6.12442017 C5.60956543 5.97102173 4.54737793 5.81762329 3.45300293 5.65957642 C-2.28921849 4.94179874 -8.04923122 4.77275747 -13.82824707 4.56192017 C-14.93684082 4.51873657 -16.04543457 4.47555298 -17.18762207 4.43106079 C-19.90106213 4.32579803 -22.61458125 4.22366171 -25.32824707 4.12442017 C-25.32824707 3.79442017 -25.32824707 3.46442017 -25.32824707 3.12442017 C-24.75791748 3.06907104 -24.18758789 3.01372192 -23.59997559 2.95669556 C-21.02975954 2.70468274 -18.46027076 2.44589289 -15.89074707 2.18692017 C-14.54399902 2.05640259 -14.54399902 2.05640259 -13.17004395 1.92324829 C-12.31604004 1.83623657 -11.46203613 1.74922485 -10.58215332 1.65957642 C-9.3960144 1.54174805 -9.3960144 1.54174805 -8.18591309 1.42153931 C-5.28482133 0.95753238 -3.29324587 0.00654835 0 0 Z " fill="#FDF0ED" transform="translate(89.3282470703125,57.875579833984375)"/>
<path d="M0 0 C1.32 0 2.64 0 4 0 C4 13.86 4 27.72 4 42 C2.68 42 1.36 42 0 42 C-0.06058594 41.16855469 -0.12117188 40.33710938 -0.18359375 39.48046875 C-0.30927734 37.85044922 -0.30927734 37.85044922 -0.4375 36.1875 C-0.51871094 35.10855469 -0.59992188 34.02960938 -0.68359375 32.91796875 C-0.90212461 29.94010095 -0.90212461 29.94010095 -2 27 C-1.67 26.67 -1.34 26.34 -1 26 C-0.76572222 23.98405418 -0.58663876 21.961526 -0.4375 19.9375 C-0.35371094 18.83277344 -0.26992187 17.72804688 -0.18359375 16.58984375 C-0.12300781 15.73519531 -0.06242187 14.88054687 0 14 C0.66 14.33 1.32 14.66 2 15 C2.33 12.03 2.66 9.06 3 6 C2.34 6 1.68 6 1 6 C0.67 7.32 0.34 8.64 0 10 C0 6.7 0 3.4 0 0 Z " fill="#FAF7F4" transform="translate(89,89)"/>
<path d="M0 0 C0.33 0 0.66 0 1 0 C1.02505615 1.21059082 1.0501123 2.42118164 1.07592773 3.66845703 C1.17034884 8.17490587 1.27048388 12.681213 1.37231445 17.1875 C1.41553236 19.13505734 1.45721631 21.08264937 1.49731445 23.03027344 C1.55533658 25.83539262 1.61893784 28.64033933 1.68359375 31.4453125 C1.70030624 32.31116974 1.71701874 33.17702698 1.73423767 34.06912231 C1.75418289 34.88951996 1.77412811 35.7099176 1.79467773 36.55517578 C1.81022202 37.27021271 1.8257663 37.98524963 1.84178162 38.72195435 C2.0348299 41.5014847 2.54194723 44.25168337 3 47 C12.9 47.33 22.8 47.66 33 48 C28.10588284 50.44705858 24.61394973 50.33204792 19.25 50.3125 C17.94675781 50.33666992 17.94675781 50.33666992 16.6171875 50.36132812 C10.74097421 50.3657397 6.33753237 49.5042532 1 47 C-0.1760003 44.6479994 -0.12084541 43.26265599 -0.11352539 40.64208984 C-0.11344986 39.74130707 -0.11337433 38.84052429 -0.11329651 37.91244507 C-0.10813522 36.93844757 -0.10297394 35.96445007 -0.09765625 34.9609375 C-0.0962413 33.96494537 -0.09482635 32.96895325 -0.09336853 31.94277954 C-0.08775936 28.75348947 -0.0752053 25.56426894 -0.0625 22.375 C-0.05748618 20.21614685 -0.05292307 18.05729259 -0.04882812 15.8984375 C-0.03778695 10.5989345 -0.02103988 5.29947222 0 0 Z " fill="#D05366" transform="translate(53,113)"/>
<path d="M0 0 C3.9102275 -0.07531552 7.82016232 -0.12913851 11.73095703 -0.16479492 C13.69969568 -0.1869343 15.66823362 -0.22509352 17.63671875 -0.26367188 C28.1724433 -0.34389313 39.35072925 0.37502666 48 7 C51.66626214 12.86601943 51.67672487 19.21122234 52 26 C51.34 26 50.68 26 50 26 C49.505 20.06 49.505 20.06 49 14 C48.34 14 47.68 14 47 14 C46.67 14.66 46.34 15.32 46 16 C46 13.36 46 10.72 46 8 C45.34 8 44.68 8 44 8 C43.505 7.01 43.505 7.01 43 6 C41.02 6 39.04 6 37 6 C37 5.67 37 5.34 37 5 C34.525 4.505 34.525 4.505 32 4 C32 3.34 32 2.68 32 2 C21.44 1.67 10.88 1.34 0 1 C0 0.67 0 0.34 0 0 Z " fill="#D03851" transform="translate(59,62)"/>
<path d="M0 0 C19.47 0 38.94 0 59 0 C59 0.33 59 0.66 59 1 C44.15 1 29.3 1 14 1 C14.33 2.32 14.66 3.64 15 5 C14.01 4.690625 13.02 4.38125 12 4.0625 C8.02268878 2.91566793 4.11232621 2.43287644 0 2 C0 1.34 0 0.68 0 0 Z " fill="#FDF3EC" transform="translate(21,58)"/>
<path d="M0 0 C7.425 0.99 7.425 0.99 15 2 C15 2.66 15 3.32 15 4 C-1.83 4 -18.66 4 -36 4 C-36 3.34 -36 2.68 -36 2 C-34.04235617 1.80543295 -32.08384679 1.61955753 -30.125 1.4375 C-28.48917969 1.28087891 -28.48917969 1.28087891 -26.8203125 1.12109375 C-24 1 -24 1 -22 2 C-20.2595583 2.08449628 -18.51590278 2.10723024 -16.7734375 2.09765625 C-15.2265625 2.09282227 -15.2265625 2.09282227 -13.6484375 2.08789062 C-12.56820312 2.07951172 -11.48796875 2.07113281 -10.375 2.0625 C-9.28703125 2.05798828 -8.1990625 2.05347656 -7.078125 2.04882812 C-4.38536211 2.03701776 -1.69270812 2.02054778 1 2 C0.505 1.01 0.505 1.01 0 0 Z " fill="#F9DFE3" transform="translate(167,163)"/>
<path d="M0 0 C0.33 0 0.66 0 1 0 C1 9.9 1 19.8 1 30 C0.01 30 -0.98 30 -2 30 C-2.99 25.05 -3.98 20.1 -5 15 C-4.01 15.33 -3.02 15.66 -2 16 C-1.67 17.32 -1.34 18.64 -1 20 C-0.67 13.4 -0.34 6.8 0 0 Z " fill="#FAD4D8" transform="translate(203,58)"/>
<path d="M0 0 C4.35393904 -0.11673963 8.70747211 -0.18743418 13.0625 -0.25 C14.29162109 -0.28351563 15.52074219 -0.31703125 16.78710938 -0.3515625 C23.71237364 -0.42622842 28.46700758 -0.37492424 34 4 C34.9375 6.25 34.9375 6.25 35 8 C33.68 8.33 32.36 8.66 31 9 C28 5.375 28 5.375 28 2 C14.14 1.505 14.14 1.505 0 1 C0 0.67 0 0.34 0 0 Z " fill="#C82742" transform="translate(54,113)"/>
<path d="M0 0 C0.33 0.66 0.66 1.32 1 2 C3.57951874 2.69093896 3.57951874 2.69093896 6.5625 3.125 C7.57441406 3.29257812 8.58632812 3.46015625 9.62890625 3.6328125 C10.80259766 3.81457031 10.80259766 3.81457031 12 4 C12 4.66 12 5.32 12 6 C10.9378125 5.84660156 9.875625 5.69320312 8.78125 5.53515625 C3.03902858 4.81737857 -2.72098415 4.6483373 -8.5 4.4375 C-9.60859375 4.39431641 -10.7171875 4.35113281 -11.859375 4.30664062 C-14.57281506 4.20137786 -17.28633417 4.09924154 -20 4 C-20 3.67 -20 3.34 -20 3 C-19.42967041 2.94465088 -18.85934082 2.88930176 -18.27172852 2.83227539 C-15.70151247 2.58026257 -13.13202369 2.32147272 -10.5625 2.0625 C-9.21575195 1.93198242 -9.21575195 1.93198242 -7.84179688 1.79882812 C-6.98779297 1.71181641 -6.13378906 1.62480469 -5.25390625 1.53515625 C-4.06776733 1.41732788 -4.06776733 1.41732788 -2.85766602 1.29711914 C-0.98896652 1.18448501 -0.98896652 1.18448501 0 0 Z " fill="#F5E9E7" transform="translate(84,58)"/>
<path d="M0 0 C5.76335611 1.74647155 10.56711652 5.43275042 13.5 10.6875 C14 13 14 13 13 16 C10.525 15.01 10.525 15.01 8 14 C8.33 11.69 8.66 9.38 9 7 C6.03 6.505 6.03 6.505 3 6 C3.33 5.01 3.66 4.02 4 3 C3.01 3 2.02 3 1 3 C0.67 2.01 0.34 1.02 0 0 Z " fill="#D33650" transform="translate(186,64)"/>
<path d="M0 0 C0.66 0 1.32 0 2 0 C2.33 4.95 2.66 9.9 3 15 C2.01 15.495 2.01 15.495 1 16 C0.89365234 14.88044922 0.89365234 14.88044922 0.78515625 13.73828125 C-0.22000833 10.23270728 -1.63429696 9.29085712 -4.5625 7.1875 C-5.38878906 6.58292969 -6.21507812 5.97835937 -7.06640625 5.35546875 C-7.70449219 4.90816406 -8.34257812 4.46085937 -9 4 C-6 4 -3 4 0 4 C-0.33 5.65 -0.66 7.3 -1 9 C-0.34 9 0.32 9 1 9 C0.67 6.03 0.34 3.06 0 0 Z " fill="#F9FCF8" transform="translate(200,63)"/>
<path d="M0 0 C1 2 1 2 1 5 C1.03480469 5.72316406 1.06960937 6.44632812 1.10546875 7.19140625 C1.13253906 7.97386719 1.15960938 8.75632812 1.1875 9.5625 C1.22230469 10.34753906 1.25710937 11.13257812 1.29296875 11.94140625 C1.19628906 12.62074219 1.09960938 13.30007812 1 14 C0.01 14.66 -0.98 15.32 -2 16 C-4.29486255 12.55770618 -4.09604775 10.99918146 -3.4921875 7.0078125 C-2.83059559 4.30893756 -1.61270802 2.24376768 0 0 Z " fill="#E42340" transform="translate(118,72)"/>
<path d="M0 0 C0.66 0 1.32 0 2 0 C1.67 0.99 1.34 1.98 1 3 C1.66 3.66 2.32 4.32 3 5 C2.67 5.66 2.34 6.32 2 7 C0.20866022 7.05391993 -1.58313899 7.09275571 -3.375 7.125 C-4.37273437 7.14820313 -5.37046875 7.17140625 -6.3984375 7.1953125 C-9 7 -9 7 -11 5 C-9.93458984 4.58427734 -9.93458984 4.58427734 -8.84765625 4.16015625 C-7.46900391 3.61681641 -7.46900391 3.61681641 -6.0625 3.0625 C-5.14597656 2.70285156 -4.22945313 2.34320313 -3.28515625 1.97265625 C-1.07581467 1.2003782 -1.07581467 1.2003782 0 0 Z " fill="#F4E9E8" transform="translate(102,155)"/>
<path d="M0 0 C0 3.3 0 6.6 0 10 C-0.33 10 -0.66 10 -1 10 C-1 7.03 -1 4.06 -1 1 C-3.45906037 1.47565766 -5.91720993 1.95536052 -8.375 2.4375 C-9.42300781 2.63956055 -9.42300781 2.63956055 -10.4921875 2.84570312 C-14.35628734 3.5772422 -14.35628734 3.5772422 -18 5 C-20.125 4.0625 -20.125 4.0625 -22 3 C-14.49783264 -0.0517291 -8.05364285 -0.33608711 0 0 Z " fill="#D23752" transform="translate(147,62)"/>
<path d="M0 0 C5.28 0 10.56 0 16 0 C15.01 0.495 15.01 0.495 14 1 C14.33 2.32 14.66 3.64 15 5 C14.01 4.690625 13.02 4.38125 12 4.0625 C8.02268878 2.91566793 4.11232621 2.43287644 0 2 C0 1.34 0 0.68 0 0 Z " fill="#F6D5D9" transform="translate(21,58)"/>
<path d="M0 0 C0 0.66 0 1.32 0 2 C1.32 1.67 2.64 1.34 4 1 C4 1.66 4 2.32 4 3 C-0.42529333 5.21264666 -5.96526141 4.29045294 -10.5625 3 C-11.366875 2.67 -12.17125 2.34 -13 2 C-12.401875 1.855625 -11.80375 1.71125 -11.1875 1.5625 C-7.20999345 0.5397126 -4.15299413 -0.09228876 0 0 Z " fill="#D92B48" transform="translate(180,161)"/>
<path d="M0 0 C0.94875 0.04125 1.8975 0.0825 2.875 0.125 C2.875 0.785 2.875 1.445 2.875 2.125 C5.515 2.125 8.155 2.125 10.875 2.125 C10.875 2.455 10.875 2.785 10.875 3.125 C6.255 3.125 1.635 3.125 -3.125 3.125 C-3.455 4.115 -3.785 5.105 -4.125 6.125 C-4.75 4.25 -4.75 4.25 -5.125 2.125 C-3.125 0.125 -3.125 0.125 0 0 Z " fill="#DB203B" transform="translate(133.125,160.875)"/>
<path d="M0 0 C0 3.20395416 -0.74335022 5.09399739 -2 8 C-4.97 8 -7.94 8 -11 8 C-8.37801226 5.84622436 -6.35595828 4.59927826 -3 4 C-3 3.34 -3 2.68 -3 2 C-2.01 1.34 -1.02 0.68 0 0 Z " fill="#F6F3F5" transform="translate(151,158)"/>
<path d="M0 0 C-3.25753924 1.93709638 -5.65609928 2.23715445 -9.421875 2.1953125 C-10.95908203 2.18564453 -10.95908203 2.18564453 -12.52734375 2.17578125 C-13.59082031 2.15902344 -14.65429688 2.14226562 -15.75 2.125 C-17.36841797 2.11146484 -17.36841797 2.11146484 -19.01953125 2.09765625 C-21.67991278 2.07411305 -24.33984336 2.04122799 -27 2 C-27 1.67 -27 1.34 -27 1 C-25.75863281 0.93941406 -24.51726562 0.87882813 -23.23828125 0.81640625 C-21.59634423 0.73196377 -19.95441768 0.64731764 -18.3125 0.5625 C-17.08756836 0.50352539 -17.08756836 0.50352539 -15.83789062 0.44335938 C-1.01100852 -0.33700284 -1.01100852 -0.33700284 0 0 Z " fill="#FAE7EB" transform="translate(91,162)"/>
<path d="M0 0 C0.33 0 0.66 0 1 0 C1 2.64 1 5.28 1 8 C-0.96466413 9.06775224 -2.96855359 10.06553465 -5 11 C-5.66 10.67 -6.32 10.34 -7 10 C-6.21625 9.0925 -5.4325 8.185 -4.625 7.25 C-2.69947504 4.94809764 -1.17794259 2.78422793 0 0 Z " fill="#F6E6E9" transform="translate(111,144)"/>
<path d="M0 0 C0.66 0 1.32 0 2 0 C2.09706112 6.11485027 1.77040851 11.93303301 1 18 C0.67 18 0.34 18 0 18 C-0.1954625 15.75067773 -0.38108226 13.50049858 -0.5625 11.25 C-0.66691406 9.99703125 -0.77132812 8.7440625 -0.87890625 7.453125 C-0.97876723 4.60547636 -0.90584295 2.65713933 0 0 Z " fill="#FDFAFB" transform="translate(90,95)"/>
<path d="M0 0 C0.99 0.33 1.98 0.66 3 1 C2.67 4.3 2.34 7.6 2 11 C1.01 11 0.02 11 -1 11 C-1.33 8.69 -1.66 6.38 -2 4 C-1.01 4.33 -0.02 4.66 1 5 C0.67 3.35 0.34 1.7 0 0 Z " fill="#F9DCE1" transform="translate(112,77)"/>
<path d="M0 0 C-0.66 1.65 -1.32 3.3 -2 5 C-5.3 5 -8.6 5 -12 5 C-11 3 -11 3 -9.00390625 2.1484375 C-8.19824219 1.89320313 -7.39257812 1.63796875 -6.5625 1.375 C-5.75941406 1.11460937 -4.95632812 0.85421875 -4.12890625 0.5859375 C-2 0 -2 0 0 0 Z " fill="#F6E6EC" transform="translate(40,161)"/>
<path d="M0 0 C0.33 0 0.66 0 1 0 C1.33 1.98 1.66 3.96 2 6 C2.33 4.02 2.66 2.04 3 0 C3.33 0 3.66 0 4 0 C4 3.63 4 7.26 4 11 C2.68 11 1.36 11 0 11 C0 7.37 0 3.74 0 0 Z " fill="#F2D6D5" transform="translate(89,120)"/>
<path d="M0 0 C0.33 0 0.66 0 1 0 C1.36923077 7.38461538 1.36923077 7.38461538 -0.5 10.5 C-0.995 10.995 -1.49 11.49 -2 12 C-2 11.01 -2 10.02 -2 9 C-2.66 9 -3.32 9 -4 9 C-3.6875 7.0625 -3.6875 7.0625 -3 5 C-2.01 4.67 -1.02 4.34 0 4 C0 2.68 0 1.36 0 0 Z " fill="#D62340" transform="translate(88,92)"/>
<path d="M0 0 C2.375 0.1875 2.375 0.1875 5 1 C6.3125 3.5625 6.3125 3.5625 7 6 C5.68 6.33 4.36 6.66 3 7 C0 3.375 0 3.375 0 0 Z " fill="#DF294A" transform="translate(82,115)"/>
<path d="M0 0 C1.32 0 2.64 0 4 0 C3.67 1.98 3.34 3.96 3 6 C2.34 6 1.68 6 1 6 C0.67 7.32 0.34 8.64 0 10 C0 6.7 0 3.4 0 0 Z " fill="#F2D6DB" transform="translate(89,89)"/>
<path d="M0 0 C5.94 0 11.88 0 18 0 C18 0.66 18 1.32 18 2 C18.66 2.33 19.32 2.66 20 3 C13.4 2.34 6.8 1.68 0 1 C0 0.67 0 0.34 0 0 Z " fill="#F6E0E0" transform="translate(166,61)"/>
<path d="M0 0 C6.4 -0.36923077 6.4 -0.36923077 9.4375 1.5 C9.953125 1.995 10.46875 2.49 11 3 C8.24921116 3.91692961 6.64051087 4.10886083 3.8125 4.0625 C1.9253125 4.0315625 1.9253125 4.0315625 0 4 C0 3.67 0 3.34 0 3 C1.65 2.67 3.3 2.34 5 2 C3.35 1.67 1.7 1.34 0 1 C0 0.67 0 0.34 0 0 Z " fill="#D52844" transform="translate(21,161)"/>
<path d="M0 0 C0.33 0 0.66 0 1 0 C1 3.3 1 6.6 1 10 C0.01 9.67 -0.98 9.34 -2 9 C-2.875 7.25 -2.875 7.25 -3 5 C-1.625 2.25 -1.625 2.25 0 0 Z " fill="#D61C3B" transform="translate(88,121)"/>
<path d="M0 0 C2.64 0.33 5.28 0.66 8 1 C5.04816899 3.95183101 2.04488053 4.08663988 -2 5 C-2 4.34 -2 3.68 -2 3 C-1.34 2.67 -0.68 2.34 0 2 C0 1.34 0 0.68 0 0 Z " fill="#D52641" transform="translate(88,157)"/>
<path d="M0 0 C0.99 0.33 1.98 0.66 3 1 C3.33 2.65 3.66 4.3 4 6 C2.02 5.34 0.04 4.68 -2 4 C-2 3.01 -2 2.02 -2 1 C-1.34 0.67 -0.68 0.34 0 0 Z " fill="#E12B4B" transform="translate(196,74)"/>
<path d="M0 0 C1.35055201 2.70110402 1 5.00789006 1 8 C-0.32 8.33 -1.64 8.66 -3 9 C-2.5020163 5.26512223 -2.12508244 3.18762365 0 0 Z " fill="#D33047" transform="translate(118,72)"/>
<path d="M0 0 C2.97 0.33 5.94 0.66 9 1 C9 1.99 9 2.98 9 4 C7.3125 4.8125 7.3125 4.8125 5 5 C2.25 2.5625 2.25 2.5625 0 0 Z " fill="#F2DBDE" transform="translate(191,66)"/>
<path d="M0 0 C0.66 0 1.32 0 2 0 C2 0.66 2 1.32 2 2 C2.66 2.33 3.32 2.66 4 3 C1.03 3.66 -1.94 4.32 -5 5 C-5.33 4.34 -5.66 3.68 -6 3 C-4.35 3 -2.7 3 -1 3 C-0.67 2.01 -0.34 1.02 0 0 Z " fill="#FBECEB" transform="translate(130,60)"/>
<path d="M0 0 C-2.31 1.65 -4.62 3.3 -7 5 C-7 2 -7 2 -6 0 C-3 -1 -3 -1 0 0 Z " fill="#D42E4F" transform="translate(106,153)"/>
<path d="M0 0 C1.98 0 3.96 0 6 0 C6 0.66 6 1.32 6 2 C5.01 2 4.02 2 3 2 C3 2.66 3 3.32 3 4 C2.34 4 1.68 4 1 4 C0.67 4.99 0.34 5.98 0 7 C0 4.69 0 2.38 0 0 Z " fill="#DA223D" transform="translate(109,137)"/>
<path d="M0 0 C5.75 -0.125 5.75 -0.125 8 1 C8 1.99 8 2.98 8 4 C5.0280615 2.87548273 2.66559313 1.77706209 0 0 Z " fill="#F0D6D8" transform="translate(100,65)"/>
</svg>
