<?xml version="1.0" encoding="UTF-8"?>
<svg version="1.1" xmlns="http://www.w3.org/2000/svg" width="376" height="134">
<path d="M0 0 C124.08 0 248.16 0 376 0 C376 44.22 376 88.44 376 134 C251.92 134 127.84 134 0 134 C0 89.78 0 45.56 0 0 Z " fill="#FEFEFC" transform="translate(0,0)"/>
<path d="M0 0 C5.60157626 3.27639366 9.40748923 7.65096445 11.3125 13.9375 C11.94865234 13.15826172 11.94865234 13.15826172 12.59765625 12.36328125 C17.77345144 6.2092039 23.80248483 -0.38621843 32.28662109 -1.26757812 C34.59043766 -1.36754448 36.88161276 -1.38446588 39.1875 -1.375 C40.35345703 -1.39916992 40.35345703 -1.39916992 41.54296875 -1.42382812 C48.1253976 -1.42935958 52.66371153 0.01110838 58.0625 3.9375 C63.68667609 11.43640146 63.7696485 21.12586271 63.82421875 30.16796875 C63.84216995 31.28440262 63.86012115 32.40083649 63.87861633 33.55110168 C63.93228771 37.07569737 63.96647604 40.60016106 64 44.125 C64.03321118 46.53191924 64.06770428 48.93882116 64.10351562 51.34570312 C64.18798886 57.20951687 64.25651914 63.07334866 64.3125 68.9375 C65.9625 69.2675 67.6125 69.5975 69.3125 69.9375 C69.3125 75.2175 69.3125 80.4975 69.3125 85.9375 C53.8025 85.9375 38.2925 85.9375 22.3125 85.9375 C22.3125 80.6575 22.3125 75.3775 22.3125 69.9375 C23.6325 69.6075 24.9525 69.2775 26.3125 68.9375 C26.36314837 62.44135868 26.3982117 55.94526815 26.42236328 49.44897461 C26.43243006 47.23834327 26.44608448 45.02772528 26.46337891 42.81713867 C26.48759738 39.64238189 26.49897627 36.46780094 26.5078125 33.29296875 C26.51813507 32.30225876 26.52845764 31.31154877 26.53909302 30.29081726 C26.53924408 29.37008926 26.53939514 28.44936127 26.53955078 27.50073242 C26.543992 26.6902092 26.54843323 25.87968597 26.55300903 25.04460144 C26.44041809 22.63455121 26.44041809 22.63455121 24.3125 19.9375 C22.21913491 19.38533659 22.21913491 19.38533659 19.875 19.4375 C19.09253906 19.4065625 18.31007813 19.375625 17.50390625 19.34375 C15.15537774 19.75809095 15.15537774 19.75809095 13.69384766 21.8425293 C11.71701376 26.27171335 11.94026175 30.25565942 12.01953125 35.05078125 C12.02377609 36.02033249 12.02802094 36.98988373 12.03239441 37.98881531 C12.049146 41.076163 12.08679211 44.16285062 12.125 47.25 C12.14005137 49.34699576 12.15373898 51.44400178 12.16601562 53.54101562 C12.19903808 58.67343023 12.25079653 63.80535331 12.3125 68.9375 C14.2925 69.4325 14.2925 69.4325 16.3125 69.9375 C16.3125 75.2175 16.3125 80.4975 16.3125 85.9375 C1.4625 85.9375 -13.3875 85.9375 -28.6875 85.9375 C-28.6875 80.6575 -28.6875 75.3775 -28.6875 69.9375 C-27.6975 69.6075 -26.7075 69.2775 -25.6875 68.9375 C-25.6369084 62.28063186 -25.6018124 55.62381306 -25.57763672 48.96679688 C-25.56756141 46.70082751 -25.55390082 44.43487119 -25.53662109 42.16894531 C-25.51243989 38.91728499 -25.50103237 35.66579613 -25.4921875 32.4140625 C-25.48186493 31.39631744 -25.47154236 30.37857239 -25.46090698 29.32998657 C-25.46075592 28.38916229 -25.46060486 27.44833801 -25.46044922 26.47900391 C-25.45378738 25.23324081 -25.45378738 25.23324081 -25.44699097 23.96231079 C-25.5027993 21.70968993 -25.5027993 21.70968993 -27.6875 19.9375 C-30.12762949 19.69462511 -30.12762949 19.69462511 -32.8125 19.8125 C-33.72257812 19.83054687 -34.63265625 19.84859375 -35.5703125 19.8671875 C-36.61832031 19.90199219 -36.61832031 19.90199219 -37.6875 19.9375 C-39.9386119 25.3510736 -39.94811791 30.17510261 -39.8828125 35.9296875 C-39.87856766 37.34859787 -39.87856766 37.34859787 -39.87423706 38.7961731 C-39.86308932 41.80174694 -39.83799465 44.80701702 -39.8125 47.8125 C-39.80246321 49.85676651 -39.79333859 51.90103772 -39.78515625 53.9453125 C-39.76316767 58.94282444 -39.72867509 63.9401108 -39.6875 68.9375 C-38.3675 69.2675 -37.0475 69.5975 -35.6875 69.9375 C-35.6875 74.8875 -35.6875 79.8375 -35.6875 84.9375 C-51.1975 84.9375 -66.7075 84.9375 -82.6875 84.9375 C-82.6875 56.8875 -82.6875 28.8375 -82.6875 -0.0625 C-68.4975 -0.0625 -54.3075 -0.0625 -39.6875 -0.0625 C-39.1925 5.3825 -39.1925 5.3825 -38.6875 10.9375 C-37.73875 9.885625 -36.79 8.83375 -35.8125 7.75 C-26.09642912 -1.73473586 -13.0324255 -3.99259278 0 0 Z " fill="#F99D1D" transform="translate(82.6875,47.0625)"/>
<path d="M0 0 C1.13393188 -0.02803711 1.13393188 -0.02803711 2.29077148 -0.05664062 C9.0073325 0.01934353 14.3446156 2.04727151 19.25 6.6875 C23.8588003 14.36883383 24.39766444 21.95176964 24.44921875 30.75390625 C24.46716995 31.89536606 24.48512115 33.03682587 24.50361633 34.21287537 C24.5574442 37.82938025 24.59152723 41.44575524 24.625 45.0625 C24.65819729 47.52671068 24.69268916 49.99090427 24.72851562 52.45507812 C24.81315481 58.46993552 24.88162038 64.48481032 24.9375 70.5 C26.5875 70.83 28.2375 71.16 29.9375 71.5 C29.9375 76.45 29.9375 81.4 29.9375 86.5 C14.4275 86.5 -1.0825 86.5 -17.0625 86.5 C-17.0625 81.55 -17.0625 76.6 -17.0625 71.5 C-15.0825 71.005 -15.0825 71.005 -13.0625 70.5 C-13.01185163 64.00385868 -12.9767883 57.50776815 -12.95263672 51.01147461 C-12.94256994 48.80084327 -12.92891552 46.59022528 -12.91162109 44.37963867 C-12.88740262 41.20488189 -12.87602373 38.03030094 -12.8671875 34.85546875 C-12.85686493 33.86475876 -12.84654236 32.87404877 -12.83590698 31.85331726 C-12.83575592 30.93258926 -12.83560486 30.01186127 -12.83544922 29.06323242 C-12.82878738 27.84744759 -12.82878738 27.84744759 -12.82199097 26.60710144 C-12.93458191 24.19705121 -12.93458191 24.19705121 -15.0625 21.5 C-20.6980229 20.79746077 -20.6980229 20.79746077 -25.5 23.3125 C-27.71870576 26.41868806 -28.18746051 28.88783545 -28.17602539 32.60424805 C-28.17594986 33.42487228 -28.17587433 34.24549652 -28.17579651 35.09098816 C-28.17063522 35.97232925 -28.16547394 36.85367035 -28.16015625 37.76171875 C-28.15803383 39.12040825 -28.15803383 39.12040825 -28.15586853 40.50654602 C-28.15027001 43.40023091 -28.13771781 46.29383849 -28.125 49.1875 C-28.11998481 51.14908742 -28.11542193 53.11067606 -28.11132812 55.07226562 C-28.10030107 59.88154021 -28.08303747 64.690757 -28.0625 69.5 C-26.4125 70.16 -24.7625 70.82 -23.0625 71.5 C-23.0625 76.78 -23.0625 82.06 -23.0625 87.5 C-38.9025 87.5 -54.7425 87.5 -71.0625 87.5 C-71.0625 82.22 -71.0625 76.94 -71.0625 71.5 C-68.0925 71.005 -68.0925 71.005 -65.0625 70.5 C-65.0625 53.34 -65.0625 36.18 -65.0625 18.5 C-67.0425 18.17 -69.0225 17.84 -71.0625 17.5 C-71.0625 12.22 -71.0625 6.94 -71.0625 1.5 C-56.8725 1.5 -42.6825 1.5 -28.0625 1.5 C-27.5675 6.945 -27.5675 6.945 -27.0625 12.5 C-25.763125 11.2625 -24.46375 10.025 -23.125 8.75 C-15.59581233 2.19681814 -9.90505469 0.16912788 0 0 Z " fill="#F99D1D" transform="translate(285.0625,45.5)"/>
<path d="M0 0 C10.56 0 21.12 0 32 0 C32 6.6 32 13.2 32 20 C36.95 20 41.9 20 47 20 C47 24.95 47 29.9 47 35 C42.05 35 37.1 35 32 35 C32.01941363 41.46016986 32.07111264 47.91897627 32.15258789 54.37866211 C32.17576738 56.57552662 32.19016347 58.77250225 32.19555664 60.96948242 C32.20484627 64.13009891 32.24583877 67.28896776 32.29296875 70.44921875 C32.2890361 71.42960617 32.28510345 72.40999359 32.28105164 73.42008972 C32.38088681 78.09888119 32.46729262 80.3018338 35.37695312 84.11523438 C38.25117229 86.18047748 39.81273912 86.67250956 43.3125 86.8125 C44.859375 86.874375 46.40625 86.93625 48 87 C48 92.94 48 98.88 48 105 C43.19702064 105.11557972 38.39897181 105.21485655 33.59570312 105.2746582 C31.96630397 105.29961442 30.33701458 105.33359254 28.70800781 105.37719727 C10.89975939 105.84152276 10.89975939 105.84152276 3 100 C-0.65610669 96.34389331 -2.77589336 92.50587968 -3.24050903 87.31071472 C-3.23606781 86.34474869 -3.23162659 85.37878265 -3.22705078 84.38354492 C-3.22682419 82.73239937 -3.22682419 82.73239937 -3.22659302 81.04789734 C-3.21110916 79.28202019 -3.21110916 79.28202019 -3.1953125 77.48046875 C-3.1924826 76.26676102 -3.18965271 75.05305328 -3.18673706 73.80256653 C-3.17555308 69.93077689 -3.1504513 66.05921959 -3.125 62.1875 C-3.11496792 59.56055022 -3.10584246 56.93359681 -3.09765625 54.30664062 C-3.07561951 47.87100439 -3.04110147 41.43554158 -3 35 C-6.63 35 -10.26 35 -14 35 C-14 29.72 -14 24.44 -14 19 C-9.71 19 -5.42 19 -1 19 C-0.67 12.73 -0.34 6.46 0 0 Z " fill="#F99C1A" transform="translate(328,28)"/>
<path d="M0 0 C14.19 0 28.38 0 43 0 C43 23.1 43 46.2 43 70 C44.98 70 46.96 70 49 70 C49 75.28 49 80.56 49 86 C32.83 86 16.66 86 0 86 C0 80.72 0 75.44 0 70 C2.97 69.505 2.97 69.505 6 69 C6 51.84 6 34.68 6 17 C4.02 16.67 2.04 16.34 0 16 C0 10.72 0 5.44 0 0 Z " fill="#F99E20" transform="translate(158,47)"/>
<path d="M0 0 C4.69846949 2.64873878 7.44957922 6.02185763 10.0625 10.75 C11.70698069 17.02892629 11.19548768 21.86410803 8.09375 27.48046875 C5.15585045 31.62256549 1.57195802 34.76768066 -3.25 36.375 C-9.53363277 36.94623934 -14.69531621 36.64246105 -20.25 33.375 C-24.02060578 29.79493015 -26.91495035 25.84378689 -27.62109375 20.640625 C-27.77658812 13.57935111 -27.1521924 8.6729423 -22.25 3.375 C-15.46412781 -1.91798031 -8.03093882 -3.67259252 0 0 Z " fill="#F99D1C" transform="translate(191.25,1.625)"/>
<path d="M0 0 C1.98 0 3.96 0 6 0 C7.23823928 2.47647855 7.12694221 4.12313741 7.12939453 6.89282227 C7.13254669 7.91050186 7.13569885 8.92818146 7.13894653 9.97669983 C7.1369223 11.07880295 7.13489807 12.18090607 7.1328125 13.31640625 C7.13376923 14.44320297 7.13472595 15.56999969 7.13571167 16.73094177 C7.13639303 19.11579443 7.13454181 21.50064894 7.13037109 23.88549805 C7.12501729 27.55066052 7.13032017 31.21570071 7.13671875 34.88085938 C7.13605806 37.19270861 7.13477708 39.50455776 7.1328125 41.81640625 C7.13483673 42.9205336 7.13686096 44.02466095 7.13894653 45.1622467 C7.13421829 46.68403786 7.13421829 46.68403786 7.12939453 48.23657227 C7.12820114 49.58320702 7.12820114 49.58320702 7.12698364 50.95704651 C7 53 7 53 6 54 C4.02 54 2.04 54 0 54 C0 36.18 0 18.36 0 0 Z " fill="#FEF9F4" transform="translate(0,63)"/>
</svg>
