<?xml version="1.0" encoding="UTF-8"?>
<svg version="1.1" xmlns="http://www.w3.org/2000/svg" width="482" height="104">
<path d="M0 0 C159.06 0 318.12 0 482 0 C482 34.32 482 68.64 482 104 C322.94 104 163.88 104 0 104 C0 69.68 0 35.36 0 0 Z " fill="#54A831" transform="translate(0,0)"/>
<path d="M0 0 C81.18 0 162.36 0 246 0 C246 28.71 246 57.42 246 87 C164.82 87 83.64 87 0 87 C0 58.29 0 29.58 0 0 Z " fill="#0165A1" transform="translate(236,4)"/>
<path d="M0 0 C3.13488079 0.00314528 6.26880034 -0.02034422 9.40356445 -0.0456543 C23.8467469 -0.09262699 37.82838954 1.154777 52.10083008 3.31567383 C53.07067841 3.46156952 54.04052673 3.60746521 55.0397644 3.75778198 C61.71370423 4.77199906 68.37682253 5.8481889 75.03833008 6.94067383 C77.92270419 7.41125542 80.80727757 7.88052024 83.692276 8.34725952 C85.45799493 8.63313661 87.22335902 8.92121889 88.98826599 9.21206665 C99.30568418 10.88783411 109.39848291 11.55651427 119.85449219 11.61083984 C121.3812796 11.62230245 122.90802877 11.64266275 124.43457031 11.67236328 C136.03279011 11.89682877 148.28599531 11.57099024 158.72728252 5.8855238 C170.22977228 -0.06464507 181.57089901 0.50970963 194.2722168 0.63452148 C196.69789589 0.63621638 199.12357806 0.63525915 201.54925537 0.63186646 C206.74609738 0.63050661 211.94253043 0.64736083 217.13924789 0.68129349 C224.65252511 0.73032015 232.16558451 0.74570892 239.67900433 0.75322144 C251.87263473 0.76631212 264.06602257 0.80612929 276.25952148 0.86303711 C288.09544675 0.91821824 299.93130584 0.96063617 311.76733398 0.98608398 C312.86401816 0.9884485 312.86401816 0.9884485 313.98285757 0.99086078 C317.6511498 0.99869172 321.3194425 1.0062738 324.98773551 1.01373219 C355.3589406 1.0758044 385.72985148 1.18182031 416.10083008 1.31567383 C416.10083008 5.60567383 416.10083008 9.89567383 416.10083008 14.31567383 C257.04083008 14.31567383 97.98083008 14.31567383 -65.89916992 14.31567383 C-65.89916992 12.66567383 -65.89916992 11.01567383 -65.89916992 9.31567383 C-60.54838918 7.39897625 -55.11630439 6.09085159 -49.58666992 4.81567383 C-48.26699219 4.49663086 -48.26699219 4.49663086 -46.9206543 4.17114258 C-31.35352962 0.57957666 -15.91739263 -0.03321506 0 0 Z " fill="#FBFCFC" transform="translate(65.899169921875,89.684326171875)"/>
<path d="M0 0 C159.06 0 318.12 0 482 0 C482 1.32 482 2.64 482 4 C480.73293591 4.00054477 479.46587181 4.00108953 478.16041183 4.00165081 C448.05072162 4.01570937 417.94118481 4.05552509 387.83158092 4.12685562 C384.12177052 4.13562187 380.41195965 4.14417177 376.70214844 4.15258789 C375.59436133 4.15510648 375.59436133 4.15510648 374.46419469 4.15767596 C362.52215346 4.18431125 350.58016025 4.19343855 338.63809237 4.19604143 C326.37507294 4.19910602 314.1121918 4.22111107 301.84923482 4.26052457 C294.28851782 4.28423321 286.72807726 4.29334826 279.16732827 4.28351311 C273.35970059 4.27754509 267.552392 4.29798997 261.74485016 4.32806015 C259.36977023 4.3362789 256.99464316 4.33606063 254.61956787 4.32659721 C237.65681554 4.15173314 237.65681554 4.15173314 222 10 C190.51393659 23.23621424 150.55318541 11.51494774 118.44580078 6.37475586 C103.61244664 4.00845277 89.3470914 2.8133663 74.32446289 2.81469727 C71.59960856 2.81252952 68.87517271 2.79437264 66.15039062 2.77539062 C48.70349289 2.71660036 31.88761759 4.16989758 14.875 8.125 C12.45605607 8.67072187 10.03680173 9.2150703 7.6171875 9.7578125 C6.58190918 9.9964502 5.54663086 10.23508789 4.47998047 10.48095703 C2 11 2 11 0 11 C0 7.37 0 3.74 0 0 Z " fill="#F7F9F9" transform="translate(0,0)"/>
<path d="M0 0 C2.36185168 1.09708729 3.96522046 2.3304373 6 4 C6.61875 3.34 7.2375 2.68 7.875 2 C12.25354423 -0.80226831 15.92856727 -0.81142924 21 0 C25.1003136 2.0501568 27.37692101 3.72795981 29 8 C29.22705078 10.93261719 29.22705078 10.93261719 29.1953125 14.296875 C29.18886719 15.50214844 29.18242188 16.70742188 29.17578125 17.94921875 C29.15902344 19.20347656 29.14226562 20.45773438 29.125 21.75 C29.11597656 23.01972656 29.10695312 24.28945313 29.09765625 25.59765625 C29.07409005 28.73196093 29.04118832 31.86588541 29 35 C26.03 35 23.06 35 20 35 C19.98541748 34.31897217 19.97083496 33.63794434 19.95581055 32.9362793 C19.88137304 29.85277785 19.78469917 26.77036433 19.6875 23.6875 C19.65366211 22.0797168 19.65366211 22.0797168 19.61914062 20.43945312 C19.58369141 19.41142578 19.54824219 18.38339844 19.51171875 17.32421875 C19.48553467 16.37635498 19.45935059 15.42849121 19.43237305 14.4519043 C19.17756568 11.96212242 19.17756568 11.96212242 17.66333008 10.15551758 C15.90843138 8.68209357 15.90843138 8.68209357 12.875 9.1875 C11.92625 9.455625 10.9775 9.72375 10 10 C8.74161443 12.51677113 8.79181027 14.41293288 8.68359375 17.2265625 C8.64169922 18.2578125 8.59980469 19.2890625 8.55664062 20.3515625 C8.51732422 21.43179688 8.47800781 22.51203125 8.4375 23.625 C8.39431641 24.71296875 8.35113281 25.8009375 8.30664062 26.921875 C8.20035573 29.6144257 8.09965496 32.30719576 8 35 C4.7 35 1.4 35 -2 35 C-2.01981934 34.28344238 -2.03963867 33.56688477 -2.06005859 32.82861328 C-2.15509519 29.5936937 -2.26486019 26.35943906 -2.375 23.125 C-2.4059375 21.99707031 -2.436875 20.86914062 -2.46875 19.70703125 C-2.50742187 18.63066406 -2.54609375 17.55429687 -2.5859375 16.4453125 C-2.63306885 14.95281982 -2.63306885 14.95281982 -2.68115234 13.43017578 C-2.77247083 10.82145483 -2.77247083 10.82145483 -5 9 C-7.77033269 8.64482914 -9.33240764 8.51339534 -11.62817383 10.18676758 C-13.47309199 12.62531665 -13.42776003 14.28491325 -13.51171875 17.32421875 C-13.54716797 18.35224609 -13.58261719 19.38027344 -13.61914062 20.43945312 C-13.65297852 22.04723633 -13.65297852 22.04723633 -13.6875 23.6875 C-13.72166016 24.77095703 -13.75582031 25.85441406 -13.79101562 26.97070312 C-13.8735456 29.6470322 -13.94267937 32.32303159 -14 35 C-16.97 35 -19.94 35 -23 35 C-23 23.78 -23 12.56 -23 1 C-19 1 -15 1 -11 1 C-7.53785023 -0.73107488 -3.78509418 -0.48819473 0 0 Z " fill="#FBFCFA" transform="translate(42,33)"/>
<path d="M0 0 C4.03972242 3.73674324 7.92914723 7.78117819 8.8359375 13.390625 C8.9406429 19.21224512 7.85776484 23.50479126 4.5 28.3125 C0.14788503 32.55302228 -3.90529782 34.3926036 -9.9375 34.625 C-15.00969445 34.47384189 -18.51646425 33.32397288 -22.1640625 29.625 C-26.99273638 24.13266952 -27.91953102 20.81404145 -27.83984375 13.4296875 C-27.15504048 7.14838854 -24.21227431 3.71027495 -19.4375 -0.1875 C-13.36322757 -3.17135312 -5.97478475 -2.88069979 0 0 Z " fill="#F8FAFC" transform="translate(438.5,34.6875)"/>
<path d="M0 0 C4.03972242 3.73674324 7.92914723 7.78117819 8.8359375 13.390625 C8.9406429 19.21224512 7.85776484 23.50479126 4.5 28.3125 C0.14788503 32.55302228 -3.90529782 34.3926036 -9.9375 34.625 C-15.00969445 34.47384189 -18.51646425 33.32397288 -22.1640625 29.625 C-26.99273638 24.13266952 -27.91953102 20.81404145 -27.83984375 13.4296875 C-27.15504048 7.14838854 -24.21227431 3.71027495 -19.4375 -0.1875 C-13.36322757 -3.17135312 -5.97478475 -2.88069979 0 0 Z " fill="#F8FAFC" transform="translate(304.5,34.6875)"/>
<path d="M0 0 C4.34827589 3.10591135 7.51611621 6.92005623 9.625 11.875 C10.66243962 18.29264977 9.32719741 23.57412643 5.625 28.875 C1.27288503 33.11552228 -2.78029782 34.9551036 -8.8125 35.1875 C-13.8801699 35.03647672 -17.36122114 33.87459732 -21.0390625 30.22265625 C-25.78734054 24.90053418 -26.79960593 20.8543985 -26.71484375 13.734375 C-26.09215862 8.49523114 -23.70514775 5.01147313 -19.87109375 1.49609375 C-13.98403931 -2.5751945 -6.55415459 -2.1847182 0 0 Z " fill="#FAFCF9" transform="translate(104.375,34.125)"/>
<path d="M0 0 C4.1826903 2.02359099 6.17658467 4.9949317 8.1796875 8.984375 C8.80859375 11.375 8.80859375 11.375 8.80859375 19.375 C0.55859375 19.375 -7.69140625 19.375 -16.19140625 19.375 C-13.69084032 24.35121743 -13.69084032 24.35121743 -10.19140625 26.375 C-8.19421818 26.51371359 -8.19421818 26.51371359 -6.12890625 26.1875 C-5.43667969 26.11144531 -4.74445313 26.03539063 -4.03125 25.95703125 C-1.79686825 25.4613543 -1.79686825 25.4613543 -0.19140625 22.375 C5.55859375 23.25 5.55859375 23.25 7.80859375 24.375 C7.33451332 28.64172384 4.92552253 30.6205048 1.80859375 33.375 C-2.69287826 36.10230694 -7.07289148 35.87872685 -12.19140625 35.375 C-17.63659355 33.59484261 -20.97367018 29.986739 -24.19140625 25.375 C-25.94388515 20.11756329 -26.29648681 14.25202007 -24.28515625 9.015625 C-18.76823634 -0.39143074 -10.45198987 -2.98095968 0 0 Z " fill="#FAFCF9" transform="translate(184.19140625,33.625)"/>
<path d="M0 0 C3.63 0 7.26 0 11 0 C13.64 5.61 16.28 11.22 19 17 C21.63636604 13.48484527 23.03088923 10.82711639 24.625 6.8125 C26.90744467 1.09255533 26.90744467 1.09255533 28 0 C31.33327842 -0.1424478 34.66453893 -0.04222103 38 0 C34.00924194 9.8297923 29.65781275 19.47723351 25.25 29.125 C24.55842594 30.64315273 23.86701865 32.16138145 23.17578125 33.6796875 C18.19843665 44.60312671 18.19843665 44.60312671 17 47 C13.7 47 10.4 47 7 47 C8.36855037 42.5522113 10.1489121 38.5552676 12.29296875 34.44140625 C14.58020558 26.54348903 9.47059979 19.40047594 5.9375 12.625 C4.82018897 10.45125301 3.70422484 8.27681299 2.58984375 6.1015625 C2.09347412 5.14588379 1.59710449 4.19020508 1.08569336 3.20556641 C0 1 0 1 0 0 Z " fill="#FAFCFA" transform="translate(195,34)"/>
<path d="M0 0 C3.72744593 1.65664264 5.90598562 3.51725334 8 7 C8.34057617 10.02441406 8.34057617 10.02441406 8.29296875 13.515625 C8.28330078 14.76601563 8.27363281 16.01640625 8.26367188 17.3046875 C8.23853516 18.60664062 8.21339844 19.90859375 8.1875 21.25 C8.16719727 23.22613281 8.16719727 23.22613281 8.14648438 25.2421875 C8.11112551 28.49520321 8.06177033 31.747396 8 35 C5.03 35 2.06 35 -1 35 C-1.02505615 34.31373535 -1.0501123 33.6274707 -1.07592773 32.92041016 C-1.19171427 29.82174183 -1.31451885 26.72339077 -1.4375 23.625 C-1.47681641 22.54476562 -1.51613281 21.46453125 -1.55664062 20.3515625 C-1.59853516 19.3203125 -1.64042969 18.2890625 -1.68359375 17.2265625 C-1.72025146 16.27346191 -1.75690918 15.32036133 -1.79467773 14.33837891 C-1.85763465 11.97867651 -1.85763465 11.97867651 -3 10 C-4.27875 9.938125 -5.5575 9.87625 -6.875 9.8125 C-7.59429687 9.77769531 -8.31359375 9.74289063 -9.0546875 9.70703125 C-10.01761719 9.85205078 -10.01761719 9.85205078 -11 10 C-13.15749784 13.23624676 -13.28360488 14.34394066 -13.4140625 18.10546875 C-13.47207031 19.57983398 -13.47207031 19.57983398 -13.53125 21.08398438 C-13.5621875 22.10814453 -13.593125 23.13230469 -13.625 24.1875 C-13.68300781 25.74114258 -13.68300781 25.74114258 -13.7421875 27.32617188 C-13.83648296 29.88393622 -13.92208202 32.44169287 -14 35 C-16.97 35 -19.94 35 -23 35 C-23 23.78 -23 12.56 -23 1 C-20.03 1 -17.06 1 -14 1 C-13.67 1.66 -13.34 2.32 -13 3 C-12.34 2.505 -11.68 2.01 -11 1.5 C-7.17252125 -0.41373937 -4.20462736 -0.63112054 0 0 Z " fill="#FDFDFE" transform="translate(343,33)"/>
<path d="M0 0 C3.75255092 1.63154388 5.89662594 3.51154949 8 7 C8.34057617 10.02441406 8.34057617 10.02441406 8.29296875 13.515625 C8.28330078 14.76601563 8.27363281 16.01640625 8.26367188 17.3046875 C8.23853516 18.60664062 8.21339844 19.90859375 8.1875 21.25 C8.16719727 23.22613281 8.16719727 23.22613281 8.14648438 25.2421875 C8.11112551 28.49520321 8.06177033 31.747396 8 35 C5.03 35 2.06 35 -1 35 C-1.01458252 34.31897217 -1.02916504 33.63794434 -1.04418945 32.9362793 C-1.11862696 29.85277785 -1.21530083 26.77036433 -1.3125 23.6875 C-1.33505859 22.61564453 -1.35761719 21.54378906 -1.38085938 20.43945312 C-1.4340332 18.89741211 -1.4340332 18.89741211 -1.48828125 17.32421875 C-1.51446533 16.37635498 -1.54064941 15.42849121 -1.56762695 14.4519043 C-2.06850111 11.61154338 -2.69995911 10.69158276 -5 9 C-7.5 8.41666667 -7.5 8.41666667 -10 9 C-12.83619948 11.97219041 -13.39401507 14.15411844 -13.51171875 18.203125 C-13.54716797 19.1828125 -13.58261719 20.1625 -13.61914062 21.171875 C-13.65297852 22.69554687 -13.65297852 22.69554687 -13.6875 24.25 C-13.72166016 25.28125 -13.75582031 26.3125 -13.79101562 27.375 C-13.87338093 29.91655812 -13.94256834 32.45777626 -14 35 C-16.97 35 -19.94 35 -23 35 C-23 23.78 -23 12.56 -23 1 C-20.03 1 -17.06 1 -14 1 C-13.67 1.66 -13.34 2.32 -13 3 C-12.525625 2.505 -12.05125 2.01 -11.5625 1.5 C-7.76935015 -0.7203804 -4.2963242 -0.56874417 0 0 Z " fill="#FDFEFD" transform="translate(144,33)"/>
<path d="M0 0 C2.72373925 2.58755229 4.65246007 5.10627551 6.5 8.375 C6.5 9.035 6.5 9.695 6.5 10.375 C3.53 11.035 0.56 11.695 -2.5 12.375 C-2.83 11.715 -3.16 11.055 -3.5 10.375 C-5.79851498 8.07648502 -6.37453127 8.0351709 -9.5 7.9375 C-12.16922752 8.06973696 -13.22547758 8.18017764 -15.4375 9.75 C-17.62869748 13.1012432 -17.74018529 15.37191183 -17.5 19.375 C-16.29255056 22.57976624 -16.29255056 22.57976624 -13.5 24.375 C-9.46622684 24.70855564 -9.46622684 24.70855564 -5.5 24.375 C-3.44729537 22.53311388 -3.44729537 22.53311388 -2.5 20.375 C0.62290635 20.86078543 3.49580359 21.3736012 6.5 22.375 C5.17736791 28.06231799 3.13827986 30.1282041 -1.5 33.375 C-6.83424765 35.09887272 -12.39566022 35.07644659 -17.6875 33.3125 C-21.79238479 30.48469048 -25.25507505 26.86484989 -27.5 22.375 C-28.23808652 15.52133949 -28.27705426 9.66107234 -24.03125 4 C-17.61547877 -2.80857355 -8.42196053 -3.91019596 0 0 Z " fill="#F7F9FB" transform="translate(266.5,34.625)"/>
<path d="M0 0 C2.64 0 5.28 0 8 0 C8 3.3 8 6.6 8 10 C10.31 10 12.62 10 15 10 C15 12.64 15 15.28 15 18 C12.69 18 10.38 18 8 18 C8.33 23.94 8.66 29.88 9 36 C10.98 36 12.96 36 15 36 C15 38.64 15 41.28 15 44 C13.27402225 44.16322732 11.54351663 44.27895945 9.8125 44.375 C8.36810547 44.47941406 8.36810547 44.47941406 6.89453125 44.5859375 C3.54684207 43.90826762 1.96756411 42.71806754 -0.0690918 39.97412109 C-1.92763403 36.03282225 -1.51017476 31.8886926 -1.3125 27.625 C-1.28994141 26.69816406 -1.26738281 25.77132812 -1.24414062 24.81640625 C-1.18553677 22.54257665 -1.1035693 20.27215114 -1 18 C-2.98 18 -4.96 18 -7 18 C-7 15.36 -7 12.72 -7 10 C-6.195625 9.690625 -5.39125 9.38125 -4.5625 9.0625 C-2.10919595 8.23664655 -2.10919595 8.23664655 -1 7 C-0.63239269 4.67182036 -0.29758419 2.3381615 0 0 Z " fill="#FEFEFE" transform="translate(364,24)"/>
<path d="M0 0 C2.97 0 5.94 0 9 0 C9 16.5 9 33 9 50 C6.03 50 3.06 50 0 50 C0 33.5 0 17 0 0 Z " fill="#FFFFFF" transform="translate(454,18)"/>
<path d="M0 0 C2.97 0 5.94 0 9 0 C9.33 0.99 9.66 1.98 10 3 C10.33 2.505 10.66 2.01 11 1.5 C14.17572747 -0.88179561 17.10246066 -0.19168226 21 0 C21 2.97 21 5.94 21 9 C18.98177083 9.42317708 16.96354167 9.84635417 14.9453125 10.26953125 C12.62953451 10.92308838 12.62953451 10.92308838 11 14 C10.6349209 16.22131423 10.6349209 16.22131423 10.5859375 18.66796875 C10.52792969 20.00698242 10.52792969 20.00698242 10.46875 21.37304688 C10.42234375 22.76620117 10.42234375 22.76620117 10.375 24.1875 C10.31699219 25.59805664 10.31699219 25.59805664 10.2578125 27.03710938 C10.16357326 29.35775066 10.08069877 31.67884841 10 34 C6.7 34 3.4 34 0 34 C0 22.78 0 11.56 0 0 Z " fill="#F6F8FA" transform="translate(386,34)"/>
<path d="M0 0 C3.62945823 0.20544103 6.2858661 0.57884411 9.4375 2.4375 C11.89915289 6.47461074 11.73298855 10.40355099 11 15 C9.5 17.625 9.5 17.625 7 19 C2.06667872 19.70476018 0.15562097 19.77041398 -4 17 C-6.22302614 13.66546079 -6.73397271 11.85956663 -6.50390625 7.93359375 C-5.65742469 4.68546682 -3.53910265 3.04366799 -1 1 C-0.67 0.67 -0.34 0.34 0 0 Z " fill="#0867A2" transform="translate(292,41)"/>
<path d="M0 0 C2.4375 1.5 2.4375 1.5 4 4 C4.8182463 8.51300793 4.52091452 11.93646619 2.5 16.0625 C-0.54228399 18.42027009 -2.32448157 18.68730584 -6.09765625 18.40625 C-8 18 -8 18 -10.4375 16.5625 C-12.70538068 12.84317568 -13.34826523 9.34170647 -13 5 C-9.37413423 -1.00143299 -6.68646899 -1.49869132 0 0 Z " fill="#55A832" transform="translate(100,42)"/>
<path d="M0 0 C3.66429621 0.20741299 6.28912799 0.5625403 9.4375 2.5 C11.79725993 6.27561589 11.73948804 9.67091374 11 14 C9.5 17.0625 9.5 17.0625 7 19 C2.04621883 19.78631447 0.17528818 19.78352545 -4 17 C-6.22302614 13.66546079 -6.73397271 11.85956663 -6.50390625 7.93359375 C-5.65742469 4.68546682 -3.53910265 3.04366799 -1 1 C-0.67 0.67 -0.34 0.34 0 0 Z " fill="#0867A2" transform="translate(426,41)"/>
<path d="M0 0 C2.375 1.25 2.375 1.25 4 3 C4 4.32 4 5.64 4 7 C-0.62 7 -5.24 7 -10 7 C-8.43630432 0.74521729 -6.52508202 -0.79898964 0 0 Z " fill="#58AA35" transform="translate(179,40)"/>
</svg>
