<?xml version="1.0" encoding="UTF-8"?>
<svg version="1.1" xmlns="http://www.w3.org/2000/svg" width="301" height="167">
<path d="M0 0 C99.33 0 198.66 0 301 0 C301 55.11 301 110.22 301 167 C201.67 167 102.34 167 0 167 C0 111.89 0 56.78 0 0 Z " fill="#FEFDFE" transform="translate(0,0)"/>
<path d="M0 0 C1.38210351 0.53264168 2.76892245 1.0532068 4.16015625 1.56152344 C17.21742761 6.33500027 17.21742761 6.33500027 19.55517578 10.8737793 C20.05132433 12.31782724 20.5129159 13.77396405 20.94970703 15.23706055 C21.783056 17.20671699 22.63199291 19.16981885 23.49267578 21.12768555 C24.37715858 23.24623871 25.2586162 25.36605713 26.13720703 27.48706055 C26.81299805 29.09967773 26.81299805 29.09967773 27.50244141 30.74487305 C27.93234375 31.77870117 28.36224609 32.8125293 28.80517578 33.87768555 C29.19342529 34.81128906 29.5816748 35.74489258 29.98168945 36.70678711 C30.30113525 37.54177734 30.62058105 38.37676758 30.94970703 39.23706055 C31.31829834 40.16591064 31.31829834 40.16591064 31.69433594 41.11352539 C32.93850262 51.45937794 25.14549419 67.00578111 19.52050781 75.35064697 C14.68953939 81.15227664 7.54043561 83.95498114 0.63720703 86.54956055 C-0.48761581 86.98120514 -0.48761581 86.98120514 -1.63516235 87.42156982 C-14.75777581 92.26352625 -14.75777581 92.26352625 -20.76123047 90.2722168 C-21.43484619 89.95115967 -22.10846191 89.63010254 -22.80249023 89.29931641 C-25.60265636 87.9760273 -28.41292287 87.31907853 -31.41357422 86.55737305 C-50.57354528 80.82865515 -50.57354528 80.82865515 -55.46430969 72.11340332 C-58.77415591 65.42094823 -61.10630566 58.34834217 -63.15014648 51.17871094 C-63.91457013 48.30161763 -63.91457013 48.30161763 -65.22973633 46.15283203 C-66.76956347 42.55776403 -65.17088725 39.56134895 -63.86694336 36.05493164 C-63.38217529 34.88526855 -62.89740723 33.71560547 -62.39794922 32.51049805 C-62.13775497 31.8810025 -61.87756073 31.25150696 -61.60948181 30.60293579 C-61.0611069 29.2792184 -60.51049291 27.95642661 -59.95776367 26.63452148 C-59.11352785 24.6138195 -58.27770089 22.58978895 -57.44287109 20.56518555 C-51.96693446 7.37669816 -51.96693446 7.37669816 -46.09869385 4.88946533 C-45.42787781 4.617453 -44.75706177 4.34544067 -44.06591797 4.06518555 C-43.37270447 3.77851013 -42.67949097 3.49183472 -41.965271 3.19647217 C-40.49785868 2.5933735 -39.02841276 1.9952027 -37.55712891 1.40161133 C-35.31541309 0.49318776 -33.08537421 -0.4404015 -30.85498047 -1.3762207 C-29.4259325 -1.95982041 -27.99626334 -2.54190182 -26.56591797 -3.12231445 C-25.57183929 -3.54247833 -25.57183929 -3.54247833 -24.55767822 -3.97113037 C-15.83623668 -7.42062473 -8.2314154 -3.20588879 0 0 Z " fill="#E31D24" transform="translate(72.05029296875,40.762939453125)"/>
<path d="M0 0 C2.49257792 3.04232507 3.967452 5.99747601 5.41015625 9.6484375 C5.84263672 10.73640625 6.27511719 11.824375 6.72070312 12.9453125 C7.38489258 14.64300781 7.38489258 14.64300781 8.0625 16.375 C8.50916016 17.4990625 8.95582031 18.623125 9.41601562 19.78125 C10.62864102 22.84815906 11.8371954 25.91384676 13 29 C13.43610596 29.94649414 13.87221191 30.89298828 14.3215332 31.86816406 C15.25717992 36.18715511 13.86123345 39.13180972 12.1328125 43.0234375 C11.81923798 43.76961334 11.50566345 44.51578918 11.18258667 45.28457642 C10.18114951 47.65607087 9.15365446 50.01520224 8.125 52.375 C7.43965383 53.98493221 6.75603982 55.59560297 6.07421875 57.20703125 C4.40275924 61.14685942 2.70784642 65.07581599 1 69 C-7.71564934 66.57279582 -16.04766827 63.35266233 -24.4296875 59.96484375 C-25.44804688 59.56910156 -26.46640625 59.17335937 -27.515625 58.765625 C-28.42602539 58.40243164 -29.33642578 58.03923828 -30.27441406 57.66503906 C-35.68867985 56.34396597 -40.36439955 58.36030179 -45.421875 60.28515625 C-46.61167969 60.73310547 -47.80148438 61.18105469 -49.02734375 61.64257812 C-50.87005859 62.34543945 -50.87005859 62.34543945 -52.75 63.0625 C-55.20164564 63.99490947 -57.65505171 64.92227755 -60.109375 65.84765625 C-61.73311035 66.4665271 -61.73311035 66.4665271 -63.38964844 67.09790039 C-66 68 -66 68 -68 68 C-67.05351328 61.32993567 -64.75171347 55.39980399 -62.375 49.125 C-61.96121094 47.97902344 -61.54742187 46.83304688 -61.12109375 45.65234375 C-58.41242187 38.49782745 -55.4659523 33.33315879 -50 28 C-49.35224609 27.33500488 -48.70449219 26.67000977 -48.03710938 25.98486328 C-46.06562079 23.96865557 -44.06920737 21.98110659 -42.0625 20 C-41.37865234 19.32066406 -40.69480469 18.64132813 -39.99023438 17.94140625 C-38.32912841 16.29191641 -36.66571487 14.6448332 -35 13 C-31.53370165 14.48653506 -29.30977964 16.45722351 -26.671875 19.1328125 C-25.87265625 19.93847656 -25.0734375 20.74414062 -24.25 21.57421875 C-23.425 22.41597656 -22.6 23.25773437 -21.75 24.125 C-20.90953125 24.97449219 -20.0690625 25.82398437 -19.203125 26.69921875 C-17.13084317 28.79504923 -15.06337607 30.89540713 -13 33 C-11.39437806 29.00058265 -9.79076662 25.00036206 -8.1875 21 C-7.73568359 19.87464844 -7.28386719 18.74929687 -6.81835938 17.58984375 C-4.47884228 11.7495894 -2.17734983 5.90271581 0 0 Z " fill="#EBAC10" transform="translate(89,49)"/>
<path d="M0 0 C4.29 0 8.58 0 13 0 C16.26392319 3.45781962 17.97881439 5.80080531 20.125 9.875 C20.98085693 11.35540771 20.98085693 11.35540771 21.85400391 12.86572266 C23.02609994 14.89594296 24.17961883 16.93700001 25.31445312 18.98828125 C27.36571077 22.65344844 29.55210287 26.22144022 31.77050781 29.78710938 C33.87174069 33.17619466 35.93197338 36.5905507 38 40 C38 26.8 38 13.6 38 0 C42.29 0 46.58 0 51 0 C51 21.45 51 42.9 51 65 C47.04 65 43.08 65 39 65 C36.15063627 62.0549979 34.7964992 60.20581478 33 56.6875 C32.01697615 54.95496184 31.0325567 53.22321493 30.046875 51.4921875 C29.55380859 50.59209961 29.06074219 49.69201172 28.55273438 48.76464844 C25.96908065 44.16444485 23.09656268 39.75273135 20.25 35.3125 C18.5175 32.569375 16.785 29.82625 15 27 C14.67 39.54 14.34 52.08 14 65 C9.38 65 4.76 65 0 65 C0 43.55 0 22.1 0 0 Z " fill="#382F7F" transform="translate(124,51)"/>
<path d="M0 0 C4.97648969 3.01724178 7.9588692 5.58609735 9.984375 11.203125 C8.55404663 12.37857305 7.11484258 13.54322762 5.671875 14.703125 C4.87136719 15.3528125 4.07085937 16.0025 3.24609375 16.671875 C0.984375 18.203125 0.984375 18.203125 -2.015625 18.203125 C-3.22845988 16.69527623 -4.44048852 15.18675369 -5.64453125 13.671875 C-8.33927461 10.78519836 -11.45141724 10.32847963 -15.2578125 10.0234375 C-21.00568445 9.75918476 -21.00568445 9.75918476 -26.015625 12.203125 C-26.83432685 15.76519161 -26.83432685 15.76519161 -27.015625 19.203125 C-25.97664063 19.45707031 -24.93765625 19.71101563 -23.8671875 19.97265625 C-19.5775552 21.02703633 -15.29571338 22.11073492 -11.015625 23.203125 C-10.02304688 23.45320313 -9.03046875 23.70328125 -8.0078125 23.9609375 C-1.20380287 25.81657649 5.40197283 28.32411828 9.484375 34.390625 C11.98745561 39.53087983 11.84913571 44.96743094 10.39453125 50.41015625 C7.60208308 57.14034238 2.0133471 60.09098882 -4.19140625 63.34375 C-8.37700179 64.6173752 -12.41386349 64.57168748 -16.765625 64.578125 C-17.6215625 64.60261719 -18.4775 64.62710938 -19.359375 64.65234375 C-28.54019895 64.69407477 -36.07704819 61.12630033 -43.015625 55.203125 C-46.015625 51.81602823 -46.015625 51.81602823 -46.015625 49.203125 C-43.828125 47.4765625 -43.828125 47.4765625 -41.015625 45.578125 C-40.0875 44.94648437 -39.159375 44.31484375 -38.203125 43.6640625 C-37.1203125 42.94089844 -37.1203125 42.94089844 -36.015625 42.203125 C-33.58472497 43.33553185 -32.058836 44.15693394 -30.203125 46.140625 C-26.12739836 49.98345298 -21.93872312 51.3749547 -16.453125 51.578125 C-12.11573806 51.4372526 -8.18354361 50.37104361 -5.015625 47.203125 C-4.51502584 44.78830087 -4.51502584 44.78830087 -5.015625 42.203125 C-9.18726634 38.93657349 -13.63880382 38.3213424 -18.703125 37.390625 C-26.63881603 35.75713533 -34.13760752 33.93838845 -39.5 27.390625 C-42.46202333 22.3592429 -43.14410455 16.89842024 -42.015625 11.203125 C-39.48004218 4.96321415 -35.35110775 0.70519929 -29.1875 -1.984375 C-19.85332227 -4.3753959 -8.74035113 -4.27975814 0 0 Z " fill="#362D7E" transform="translate(228.015625,52.796875)"/>
<path d="M0 0 C14.85 0 29.7 0 45 0 C45 3.96 45 7.92 45 12 C34.44 12 23.88 12 13 12 C13 16.29 13 20.58 13 25 C22.57 25 32.14 25 42 25 C42 28.96 42 32.92 42 37 C32.43 37 22.86 37 13 37 C13 41.95 13 46.9 13 52 C24.22 52 35.44 52 47 52 C47 56.29 47 60.58 47 65 C31.49 65 15.98 65 0 65 C0 43.55 0 22.1 0 0 Z " fill="#352B7D" transform="translate(247,51)"/>
<path d="M0 0 C0.65739166 0.26493759 1.31478333 0.52987518 1.99209595 0.80284119 C4.07260604 1.64282512 6.14958127 2.49117698 8.2265625 3.33984375 C9.64430533 3.91396967 11.06227204 4.48754306 12.48046875 5.06054688 C15.94011237 6.45976503 19.39663921 7.86650409 22.8515625 9.27734375 C21.45065939 16.60163066 19.11887225 23.23848999 16.3515625 30.15234375 C15.94808594 31.18359375 15.54460937 32.21484375 15.12890625 33.27734375 C12.12907554 40.86107419 12.12907554 40.86107419 9.8515625 44.27734375 C9.33996582 43.70814209 8.82836914 43.13894043 8.30126953 42.55249023 C-2.09023057 31.15517441 -10.90434739 22.12946433 -25.94628906 17.92626953 C-29.80391775 16.78950933 -33.52483776 15.28942542 -37.2734375 13.83984375 C-38.60860186 13.3390796 -39.944462 12.84016359 -41.28125 12.34375 C-42.70050781 11.81587891 -42.70050781 11.81587891 -44.1484375 11.27734375 C-44.1484375 10.61734375 -44.1484375 9.95734375 -44.1484375 9.27734375 C-39.85158848 7.38827104 -35.54673569 5.5193294 -31.23339844 3.66821289 C-29.76848667 3.03625526 -28.3058742 2.39893892 -26.84570312 1.75610352 C-24.74155691 0.83088119 -22.62978609 -0.07450143 -20.515625 -0.9765625 C-19.86850555 -1.26608292 -19.22138611 -1.55560333 -18.55465698 -1.85389709 C-11.58365187 -4.78020693 -6.66190047 -2.74175002 0 0 Z " fill="#E55C1C" transform="translate(66.1484375,38.72265625)"/>
<path d="M0 0 C3.46629835 1.48653506 5.69022036 3.45722351 8.328125 6.1328125 C9.12734375 6.93847656 9.9265625 7.74414062 10.75 8.57421875 C11.575 9.41597656 12.4 10.25773437 13.25 11.125 C14.09046875 11.97449219 14.9309375 12.82398437 15.796875 13.69921875 C17.86915683 15.79504923 19.93662393 17.89540713 22 20 C19.63677895 25.43909855 15.24452695 29.1639623 11.125 33.3125 C9.90103516 34.58577148 9.90103516 34.58577148 8.65234375 35.88476562 C7.46705078 37.08069336 7.46705078 37.08069336 6.2578125 38.30078125 C5.5373877 39.03466064 4.81696289 39.76854004 4.07470703 40.5246582 C2 42 2 42 0.01806641 41.99707031 C-2.69441347 40.65690967 -4.42896293 38.90693647 -6.546875 36.74609375 C-7.39121094 35.89208984 -8.23554687 35.03808594 -9.10546875 34.15820312 C-9.97816406 33.26037109 -10.85085937 32.36253906 -11.75 31.4375 C-12.63816406 30.53580078 -13.52632812 29.63410156 -14.44140625 28.70507812 C-16.63448315 26.47662902 -18.82026044 24.24148407 -21 22 C-16.61557474 16.74825074 -11.99157907 11.86777527 -7.125 7.0625 C-6.43664063 6.37865234 -5.74828125 5.69480469 -5.0390625 4.99023438 C-3.36166489 3.32448536 -1.68196209 1.6611378 0 0 Z " fill="#FCFBFA" transform="translate(54,62)"/>
<path d="M0 0 C2.49257792 3.04232507 3.967452 5.99747601 5.41015625 9.6484375 C5.84263672 10.73640625 6.27511719 11.824375 6.72070312 12.9453125 C7.16349609 14.07710937 7.60628906 15.20890625 8.0625 16.375 C8.50916016 17.4990625 8.95582031 18.623125 9.41601562 19.78125 C10.62864102 22.84815906 11.8371954 25.91384676 13 29 C13.43610596 29.95100586 13.87221191 30.90201172 14.3215332 31.88183594 C15.24969497 36.14757254 13.88310849 38.98475129 12.1328125 42.8046875 C11.81923798 43.5286673 11.50566345 44.25264709 11.18258667 44.99856567 C10.18127217 47.29904402 9.1537373 49.58667271 8.125 51.875 C7.43964044 53.43672627 6.75602628 54.99921975 6.07421875 56.5625 C4.40290198 60.38418327 2.70797925 64.19456904 1 68 C-0.65809773 65.5128534 -1.6753272 63.55103024 -2.75 60.8125 C-3.26240234 59.50925781 -3.26240234 59.50925781 -3.78515625 58.1796875 C-4.72096308 55.73034102 -5.64464898 53.27782076 -6.55859375 50.8203125 C-6.82768555 50.09739014 -7.09677734 49.37446777 -7.37402344 48.62963867 C-7.91279368 47.17777251 -8.44864251 45.72481863 -8.98144531 44.27075195 C-10.04638663 40.87662178 -10.04638663 40.87662178 -12 38 C-12.79660139 31.16797159 -10.27286703 25.79543912 -7.6875 19.5625 C-6.87853355 17.5639529 -6.06993285 15.56525771 -5.26171875 13.56640625 C-4.8754834 12.62168457 -4.48924805 11.67696289 -4.09130859 10.70361328 C-2.66052705 7.15898803 -1.32101006 3.58682018 0 0 Z " fill="#E55C1B" transform="translate(89,49)"/>
<path d="M0 0 C0.63519562 0.24274155 1.27039124 0.48548309 1.92483521 0.73558044 C3.93372653 1.50465968 5.93951719 2.2814806 7.9453125 3.05859375 C9.31490598 3.5845008 10.68469589 4.10989659 12.0546875 4.63476562 C15.39552087 5.91597153 18.73362103 7.20413341 22.0703125 8.49609375 C22.0703125 9.15609375 22.0703125 9.81609375 22.0703125 10.49609375 C18.19334172 12.02806701 14.31555094 13.55794086 10.43701172 15.0859375 C9.11973117 15.60522829 7.80267003 16.12507605 6.48583984 16.64550781 C4.58489516 17.39667596 2.6831509 18.14578802 0.78125 18.89453125 C-0.93118896 19.57008057 -0.93118896 19.57008057 -2.67822266 20.25927734 C-4.28769775 20.87150146 -4.28769775 20.87150146 -5.9296875 21.49609375 C-6.92709961 21.92390137 -7.92451172 22.35170898 -8.95214844 22.79248047 C-12.82596208 23.70788969 -14.64587161 22.90733419 -18.28125 21.35546875 C-19.46203125 20.86175781 -20.6428125 20.36804688 -21.859375 19.859375 C-23.09128273 19.32192827 -24.32305232 18.78416478 -25.5546875 18.24609375 C-26.79354405 17.72223626 -28.03312282 17.20008324 -29.2734375 16.6796875 C-38.51469211 12.76681492 -38.51469211 12.76681492 -42.9296875 10.49609375 C-39.31960556 4.60612488 -32.81407698 3.43024904 -26.6171875 1.18359375 C-25.39322266 0.71630859 -24.16925781 0.24902344 -22.90820312 -0.23242188 C-21.72291016 -0.66876953 -20.53761719 -1.10511719 -19.31640625 -1.5546875 C-18.23576904 -1.95341064 -17.15513184 -2.35213379 -16.04174805 -2.76293945 C-10.18369413 -4.1577142 -5.4745709 -2.10746756 0 0 Z " fill="#E31C24" transform="translate(65.9296875,108.50390625)"/>
<path d="M0 0 C0.33 0.66 0.66 1.32 1 2 C3.06995628 2.70262551 3.06995628 2.70262551 5.625 3.25 C11.20100091 4.67133357 16.39281587 6.64568506 21.69580078 8.84277344 C25.42281888 10.38546955 29.15811237 11.77036062 33 13 C31.51346494 16.46629835 29.54277649 18.69022036 26.8671875 21.328125 C26.06152344 22.12734375 25.25585938 22.9265625 24.42578125 23.75 C23.58402344 24.575 22.74226563 25.4 21.875 26.25 C21.02550781 27.09046875 20.17601563 27.9309375 19.30078125 28.796875 C17.20495077 30.86915683 15.10459287 32.93662393 13 35 C10.43670985 32.43670985 9.4738689 29.5672373 8.1875 26.25 C7.92759277 25.58766357 7.66768555 24.92532715 7.39990234 24.24291992 C6.59057216 22.16540925 5.79284952 20.08385249 5 18 C4.74718262 17.33629395 4.49436523 16.67258789 4.23388672 15.98876953 C0 4.77779616 0 4.77779616 0 0 Z " fill="#EBAD0E" transform="translate(21,48)"/>
<path d="M0 0 C1 2 1 2 0.44262695 3.98022461 C-0.02977417 5.17917358 -0.02977417 5.17917358 -0.51171875 6.40234375 C-0.85589844 7.28833252 -1.20007813 8.17432129 -1.5546875 9.0871582 C-1.92851563 10.027771 -2.30234375 10.96838379 -2.6875 11.9375 C-3.43157142 13.84612744 -4.17506629 15.75497975 -4.91796875 17.6640625 C-5.27810059 18.58348633 -5.63823242 19.50291016 -6.00927734 20.45019531 C-7.75308217 24.93819374 -9.37742771 29.46700754 -11 34 C-16.03043332 29.77883845 -20.79239333 25.39019121 -25.4375 20.75 C-26.07365234 20.12609375 -26.70980469 19.5021875 -27.36523438 18.859375 C-27.96529297 18.26125 -28.56535156 17.663125 -29.18359375 17.046875 C-29.99654907 16.24008301 -29.99654907 16.24008301 -30.82592773 15.41699219 C-32 14 -32 14 -32 12 C-21.44 8.04 -10.88 4.08 0 0 Z " fill="#362C7D" transform="translate(88,49)"/>
</svg>
