<?xml version="1.0" encoding="UTF-8"?>
<svg version="1.1" xmlns="http://www.w3.org/2000/svg" width="600" height="83">
<path d="M0 0 C198 0 396 0 600 0 C600 27.39 600 54.78 600 83 C402 83 204 83 0 83 C0 55.61 0 28.22 0 0 Z " fill="#FBFBFB" transform="translate(0,0)"/>
<path d="M0 0 C101.97 0 203.94 0 309 0 C309 0.66 309 1.32 309 2 C308.03320312 2.08636719 307.06640625 2.17273438 306.0703125 2.26171875 C294.16545852 3.54650002 285.61404247 5.99055458 277.69140625 15.59375 C269.71726191 26.93802925 269.84354753 40.6408958 271 54 C272.56179465 62.2854218 276.35663478 69.73303265 283.29296875 74.61328125 C291.31999652 79.70151822 298.5571888 81.28260081 307.9375 81.625 C308.81212891 81.66367188 309.68675781 81.70234375 310.58789062 81.7421875 C312.72494631 81.8356107 314.86244294 81.91885398 317 82 C317 82.33 317 82.66 317 83 C212.39 83 107.78 83 0 83 C0 55.61 0 28.22 0 0 Z " fill="#FBFBFB" transform="translate(0,0)"/>
<path d="M0 0 C40.92 0 81.84 0 124 0 C124 0.66 124 1.32 124 2 C123.03320312 2.08636719 122.06640625 2.17273438 121.0703125 2.26171875 C109.16545852 3.54650002 100.61404247 5.99055458 92.69140625 15.59375 C84.71726191 26.93802925 84.84354753 40.6408958 86 54 C87.56179465 62.2854218 91.35663478 69.73303265 98.29296875 74.61328125 C106.31999652 79.70151822 113.5571888 81.28260081 122.9375 81.625 C123.81212891 81.66367188 124.68675781 81.70234375 125.58789062 81.7421875 C127.72494631 81.8356107 129.86244294 81.91885398 132 82 C132 82.33 132 82.66 132 83 C78.54 83 25.08 83 -30 83 C-30 82.34 -30 81.68 -30 81 C-29.02123901 80.29097534 -29.02123901 80.29097534 -28.02270508 79.56762695 C-24.75944875 75.4252411 -25.53584685 71.03234788 -25.63671875 65.91796875 C-25.6368532 63.6842447 -25.63617678 61.45052048 -25.63476562 59.21679688 C-25.6556325 55.70109653 -25.68751927 52.18609073 -25.7355957 48.6706543 C-25.77447578 45.27329852 -25.77045774 41.87798884 -25.76171875 38.48046875 C-25.78852219 37.435457 -25.81532562 36.39044525 -25.84294128 35.31376648 C-25.80753268 30.00028102 -25.47879984 26.82533402 -21.68286133 22.92700195 C-15.22718658 17.34029679 -9.05404502 15.54905251 -0.63671875 14.58984375 C2.25654201 13.9426106 3.33320396 13.43169559 5 11 C5.08333333 7.41666667 5.08333333 7.41666667 4 4 C2.06402968 2.48705712 2.06402968 2.48705712 0 2 C0 1.34 0 0.68 0 0 Z " fill="#FBFBFB" transform="translate(185,0)"/>
<path d="M0 0 C29.37 0 58.74 0 89 0 C89 0.66 89 1.32 89 2 C89.99 2.0825 90.98 2.165 92 2.25 C99.87851581 3.45719194 104.56190056 7.03279643 109.45703125 13.1953125 C113.79071861 21.07274926 114.46705101 29.11469251 114.46875 37.95703125 C114.47636353 39.0630217 114.48397705 40.16901215 114.49182129 41.30851746 C114.50255984 43.62875116 114.50550105 45.94903296 114.50097656 48.26928711 C114.49999785 51.82030718 114.54182623 55.36920943 114.5859375 58.91992188 C114.59114048 61.18228718 114.59383276 63.44465996 114.59375 65.70703125 C114.61014526 66.76541702 114.62654053 67.8238028 114.64343262 68.91426086 C114.57452369 76.23363402 114.57452369 76.23363402 111.62304688 80.1706543 C109 82 109 82 106.4375 82.5625 C103.20473345 81.81647695 102.09200606 80.54522531 100 78 C99.50793457 75.59196472 99.50793457 75.59196472 99.51757812 72.88354492 C99.51077026 71.86536179 99.5039624 70.84717865 99.49694824 69.79814148 C99.50826782 68.70330948 99.5195874 67.60847748 99.53125 66.48046875 C99.52420044 65.34853592 99.51715088 64.21660309 99.5098877 63.05036926 C99.48037293 58.20850988 99.497012 53.36705091 99.50927734 48.52514648 C99.51166152 44.98917676 99.49071545 41.45385768 99.46875 37.91796875 C99.48006958 36.82920944 99.49138916 35.74045013 99.50305176 34.61869812 C99.46042235 28.18383353 98.8558433 24.22374539 95 19 C90.3248869 15.28388446 85.00456213 15.4368074 79.25 15.59375 C71.6028897 16.54963879 65.96822034 21.23673128 60.69598389 26.6199646 C57.63010986 30.92241627 57.9414502 35.27269691 58.0703125 40.39453125 C58.06417938 41.46370285 58.05804626 42.53287445 58.05172729 43.63444519 C58.0388587 47.02835915 58.07970393 50.41890905 58.125 53.8125 C58.13845515 57.22313976 58.14077497 60.63345545 58.13400269 64.04411316 C58.13322157 66.16094548 58.14605654 68.27783559 58.17385864 70.39448547 C58.17981049 71.34945419 58.18576233 72.30442291 58.19189453 73.28833008 C58.2027005 74.12801834 58.21350647 74.9677066 58.22463989 75.83283997 C58 78 58 78 56 81 C50.63013879 83.05627854 45.71828505 83.28161963 40.015625 83.23046875 C39.16055359 83.23001053 38.30548218 83.22955231 37.42449951 83.2290802 C35.6158306 83.22606993 33.807164 83.21822049 31.99853516 83.20581055 C29.29970548 83.18783113 26.60122645 83.1852995 23.90234375 83.18554688 C15.11218897 83.16843424 6.33551202 83.00547774 -2.4453125 82.58984375 C-3.21808533 82.55658493 -3.99085815 82.52332611 -4.78704834 82.48905945 C-15.1851703 81.9317757 -23.54505671 78.36476253 -31 71 C-37.73559752 62.74889304 -39.5049513 53.46582371 -39.375 43.0625 C-39.38660156 42.13759766 -39.39820313 41.21269531 -39.41015625 40.25976562 C-39.36156662 28.70353182 -35.95465389 19.60757646 -28.21875 11.0234375 C-21.58840032 4.6376499 -13.98498989 1.7853695 -4.8125 1.75 C-3.20740059 1.81285704 -1.60244952 1.88841744 0 2 C0 1.34 0 0.68 0 0 Z " fill="#FBFBFB" transform="translate(309,0)"/>
<path d="M0 0 C15.18 0 30.36 0 46 0 C46 27.39 46 54.78 46 83 C20.59 83 -4.82 83 -31 83 C-31 82.34 -31 81.68 -31 81 C-32.32 80.34 -33.64 79.68 -35 79 C-35.06946019 69.53383128 -35.12279088 60.06775006 -35.15543652 50.60138226 C-35.1711035 46.20592445 -35.19236044 41.81064078 -35.22631836 37.4152832 C-35.25887524 33.17481076 -35.27684523 28.93450599 -35.28463173 24.69391823 C-35.29018187 23.07474947 -35.30101979 21.45559006 -35.31719017 19.83649254 C-35.33891617 17.57137477 -35.34196903 15.30695297 -35.34057617 13.04174805 C-35.34723801 11.75157272 -35.35389984 10.4613974 -35.36076355 9.13212585 C-35 6 -35 6 -33.69746399 4.08332825 C-30.82340078 2.24908971 -28.29492096 2.64697275 -25 3 C-22.79242641 4.62094564 -22.09637581 5.57403362 -21.48828125 8.26171875 C-21.40126953 9.46248047 -21.40126953 9.46248047 -21.3125 10.6875 C-21.21388672 11.89986328 -21.21388672 11.89986328 -21.11328125 13.13671875 C-21.07589844 13.75160156 -21.03851562 14.36648438 -21 15 C-20.525625 14.29875 -20.05125 13.5975 -19.5625 12.875 C-14.19232296 6.84992332 -7.58322647 3.48178321 0 1 C0 0.67 0 0.34 0 0 Z " fill="#FAFCF7" transform="translate(554,0)"/>
<path d="M0 0 C25.67409451 -0.04010881 25.67409451 -0.04010881 36.62695312 -0.04882812 C44.09741934 -0.05480339 51.56787329 -0.06186859 59.03833008 -0.07543945 C65.06186495 -0.08631322 71.08538666 -0.09228638 77.10893059 -0.09487724 C79.40579371 -0.09672339 81.70265612 -0.10032842 83.99951363 -0.10573006 C87.21917395 -0.11300002 90.43878004 -0.11398842 93.65844727 -0.11352539 C94.60575714 -0.11712067 95.55306702 -0.12071594 96.52908325 -0.12442017 C101.46291526 -0.11675383 106.13610178 0.15987047 111 1 C111 1.33 111 1.66 111 2 C110.00742188 2.06316406 109.01484375 2.12632813 107.9921875 2.19140625 C95.8261361 3.19368873 85.10057414 6.18255934 76.375 15.375 C68.16112686 25.68191576 66.91442556 37.17020818 68 50 C69.72839813 59.65195825 73.3745962 67.88495381 81.4296875 73.77734375 C83.91369884 75.32135688 86.3747613 76.71082028 89 78 C90.08410156 78.53496094 91.16820313 79.06992188 92.28515625 79.62109375 C96.48097452 81.17853208 100.00969321 81.54571296 104.4375 81.6875 C105.16904297 81.72166016 105.90058594 81.75582031 106.65429688 81.79101562 C108.43569562 81.87251753 110.21781749 81.93795523 112 82 C112 82.33 112 82.66 112 83 C75.04 83 38.08 83 0 83 C0 55.61 0 28.22 0 0 Z " fill="#FBFBFB" transform="translate(0,0)"/>
<path d="M0 0 C7.43937442 7.41103395 12.00767385 17.47547597 12.3125 28 C12.36857422 29.2684375 12.36857422 29.2684375 12.42578125 30.5625 C11.84664114 33.87794429 10.59245682 34.90122092 8 37 C5.43096924 37.48101807 5.43096924 37.48101807 2.49707031 37.45410156 C1.39623108 37.45379944 0.29539185 37.45349731 -0.83880615 37.45318604 C-2.02121887 37.43254089 -3.20363159 37.41189575 -4.421875 37.390625 C-5.63699768 37.38496521 -6.85212036 37.37930542 -8.10406494 37.37347412 C-11.98644343 37.35107734 -15.86790028 37.30087187 -19.75 37.25 C-22.38149709 37.2299394 -25.01300864 37.21168787 -27.64453125 37.1953125 C-34.09666881 37.15120153 -40.54826856 37.08425519 -47 37 C-46.24625139 39.09498054 -45.47938971 41.18524622 -44.70703125 43.2734375 C-44.06858276 45.02019775 -44.06858276 45.02019775 -43.41723633 46.80224609 C-40.87702847 52.5337952 -36.89138474 55.32862107 -31.3125 57.875 C-21.98896033 60.8930244 -12.08146786 58.98156626 -3 56 C-2.29101562 55.63132813 -1.58203125 55.26265625 -0.8515625 54.8828125 C1.97454761 53.53534228 4.04764475 54.22982037 7 55 C9 57 9 57 9.4375 59.875 C9 63 9 63 6.7734375 65.0234375 C-1.99393432 71.27173347 -9.53469145 72.46441048 -20.125 72.5 C-21.13796143 72.50612305 -22.15092285 72.51224609 -23.19458008 72.51855469 C-35.53975957 72.31365544 -44.07076171 69.0218339 -52.75390625 60.22265625 C-61.0798166 50.3525921 -62.08693716 37.45424159 -61.21875 25.07714844 C-60.19340617 15.34095949 -55.65211707 7.07501798 -49 0 C-34.55234611 -11.44345919 -14.51198414 -11.0556225 0 0 Z " fill="#2D2D2D" transform="translate(251,10)"/>
<path d="M0 0 C9.47568956 5.44769609 15.33423428 13.54063678 18.5859375 23.859375 C19.14966839 26.77375735 19.24837093 29.59568654 19.3125 32.5625 C19.36857422 34.26599609 19.36857422 34.26599609 19.42578125 36.00390625 C19 39 19 39 17.31158447 40.66596985 C14.50997754 42.28279509 12.81071719 42.36315923 9.58886719 42.34057617 C7.96763947 42.34023628 7.96763947 42.34023628 6.31365967 42.33988953 C5.15312073 42.32440567 3.99258179 42.30892181 2.796875 42.29296875 C1.60394836 42.28872391 0.41102173 42.28447906 -0.8180542 42.28010559 C-4.62893219 42.26331023 -8.43928178 42.22565518 -12.25 42.1875 C-14.8333257 42.17245433 -17.41665968 42.15876572 -20 42.14648438 C-26.33351368 42.11340381 -32.66671909 42.06319524 -39 42 C-38.55159541 43.5876508 -38.0956972 45.1731862 -37.63671875 46.7578125 C-37.38365967 47.64098145 -37.13060059 48.52415039 -36.86987305 49.43408203 C-34.97023313 55.03756661 -32.19925461 58.63654035 -26.9375 61.375 C-16.72915049 66.0243473 -6.66859835 64.33514091 3.67578125 60.875 C7.84301716 59.77810124 12.10925473 58.93645579 16 61.125 C17 63 17 63 17.1875 65.875 C15.39920242 70.58104627 12.3988896 71.88250435 8 74 C0.67882785 76.86962141 -6.18902893 77.4920182 -14 77.4375 C-15.01578125 77.45748047 -16.0315625 77.47746094 -17.078125 77.49804688 C-26.6030337 77.49194116 -34.70015094 74.81487925 -42.18359375 68.828125 C-49.66780524 61.29562827 -53.33406397 51.21079287 -53.51977539 40.77807617 C-53.42363818 26.36105514 -51.97208156 15.90559909 -41.48046875 5.09765625 C-30.0413974 -4.57601511 -13.6198008 -5.82454504 0 0 Z " fill="#2D2D2D" transform="translate(488,5)"/>
<path d="M0 0 C8.08800933 5.81593604 13.11528519 13.67605179 15.3125 23.375 C15.79014937 27.44240601 16.12673774 31.34572061 15.3125 35.375 C13.25536759 37.96724907 12.07456781 39.23017238 8.78143311 39.85601807 C7.83101135 39.84713562 6.8805896 39.83825317 5.90136719 39.82910156 C4.82054871 39.82879944 3.73973022 39.82849731 2.62615967 39.82818604 C1.46562073 39.80754089 0.30508179 39.78689575 -0.890625 39.765625 C-2.08355164 39.75996521 -3.27647827 39.75430542 -4.5055542 39.74847412 C-8.31661056 39.72607926 -12.12672767 39.67587429 -15.9375 39.625 C-18.52081976 39.60493915 -21.10415425 39.58668766 -23.6875 39.5703125 C-30.02115394 39.52620411 -36.35425987 39.45925978 -42.6875 39.375 C-42.22991178 40.97269368 -41.76655055 42.56873463 -41.30078125 44.1640625 C-40.91466675 45.49751709 -40.91466675 45.49751709 -40.52075195 46.85791016 C-38.50393162 52.95032668 -35.20977221 56.28252756 -29.6875 59.375 C-19.86279626 63.26016023 -9.70201549 62.30107219 -0.1328125 58.2734375 C3.564895 56.91485487 6.41282543 56.94958096 10.3125 57.375 C12.3125 59.375 12.3125 59.375 12.625 62.3125 C12.26947777 65.79661786 11.88774301 66.21625415 9.3125 68.375 C7.515625 69.47265625 7.515625 69.47265625 5.5625 70.4375 C4.92828125 70.75847656 4.2940625 71.07945313 3.640625 71.41015625 C-7.65531203 76.09152613 -23.43765416 76.670889 -35.0625 72.8125 C-44.17415255 68.59688153 -50.58989365 62.61134273 -54.53808594 53.38793945 C-56.74028452 47.33047623 -57.14258762 41.84895895 -57.0625 35.4375 C-57.07410156 34.51259766 -57.08570313 33.58769531 -57.09765625 32.63476562 C-57.04906662 21.07853182 -53.64215389 11.98257646 -45.90625 3.3984375 C-33.42936065 -8.61823872 -14.38550413 -8.71848735 0 0 Z " fill="#2D2D2D" transform="translate(326.6875,7.625)"/>
<path d="M0 0 C7.16073585 5.47284811 10.24437148 12.05783486 12.1875 20.671875 C12.60612808 24.66215595 12.6554795 28.61885948 12.65625 32.62890625 C12.66767029 34.28789192 12.66767029 34.28789192 12.67932129 35.98039246 C12.69005984 38.30062616 12.69300105 40.62090796 12.68847656 42.94116211 C12.68749785 46.49218218 12.72932623 50.04108443 12.7734375 53.59179688 C12.77864048 55.85416218 12.78133276 58.11653496 12.78125 60.37890625 C12.79764526 61.43729202 12.81404053 62.4956778 12.83093262 63.58613586 C12.76202369 70.90550902 12.76202369 70.90550902 9.81054688 74.8425293 C7.1875 76.671875 7.1875 76.671875 4.625 77.234375 C1.39223345 76.48835195 0.27950606 75.21710031 -1.8125 72.671875 C-2.30456543 70.26383972 -2.30456543 70.26383972 -2.29492188 67.55541992 C-2.30172974 66.53723679 -2.3085376 65.51905365 -2.31555176 64.47001648 C-2.30423218 63.37518448 -2.2929126 62.28035248 -2.28125 61.15234375 C-2.28829956 60.02041092 -2.29534912 58.88847809 -2.3026123 57.72224426 C-2.33212707 52.88038488 -2.315488 48.03892591 -2.30322266 43.19702148 C-2.30083848 39.66105176 -2.32178455 36.12573268 -2.34375 32.58984375 C-2.33243042 31.50108444 -2.32111084 30.41232513 -2.30944824 29.29057312 C-2.35207765 22.85570853 -2.9566567 18.89562039 -6.8125 13.671875 C-11.4876131 9.95575946 -16.80793787 10.1086824 -22.5625 10.265625 C-30.2096103 11.22151379 -35.84427966 15.90860628 -41.11651611 21.2918396 C-44.18239014 25.59429127 -43.8710498 29.94457191 -43.7421875 35.06640625 C-43.74832062 36.13557785 -43.75445374 37.20474945 -43.76077271 38.30632019 C-43.7736413 41.70023415 -43.73279607 45.09078405 -43.6875 48.484375 C-43.67404485 51.89501476 -43.67172503 55.30533045 -43.67849731 58.71598816 C-43.67927843 60.83282048 -43.66644346 62.94971059 -43.63864136 65.06636047 C-43.63268951 66.02132919 -43.62673767 66.97629791 -43.62060547 67.96020508 C-43.6097995 68.79989334 -43.59899353 69.6395816 -43.58786011 70.50471497 C-43.8125 72.671875 -43.8125 72.671875 -45.8125 75.671875 C-49.125 76.671875 -49.125 76.671875 -52.8125 76.671875 C-56.13777089 74.11785412 -57.63196443 72.60067128 -58.44068909 68.44004822 C-58.44165085 67.21967361 -58.44261261 65.99929901 -58.44360352 64.74194336 C-58.45075882 64.06488846 -58.45791412 63.38783356 -58.46528625 62.69026184 C-58.48212715 60.46338398 -58.46280367 58.2385325 -58.44140625 56.01171875 C-58.4422353 54.45902846 -58.44469603 52.90633826 -58.44871521 51.35365295 C-58.45156988 48.10455815 -58.43690383 44.85615398 -58.40942383 41.60717773 C-58.37531212 37.44504072 -58.38137125 33.28413598 -58.4000864 29.12193966 C-58.41065957 25.91766608 -58.40171639 22.7136788 -58.38670158 19.50943184 C-58.38152348 17.97485771 -58.38199709 16.44025365 -58.38824654 14.90568352 C-58.39370415 12.76060649 -58.37331179 10.61728856 -58.34594727 8.47241211 C-58.33974869 7.2528331 -58.33355011 6.03325409 -58.3271637 4.77671814 C-57.71281826 1.07051887 -56.81659964 -0.12949315 -53.8125 -2.328125 C-47.82674231 -3.06321805 -47.82674231 -3.06321805 -45.109375 -1.09375 C-43.42678168 1.19700958 -43.50281719 2.54917044 -43.625 5.359375 C-43.65207031 6.16761719 -43.67914063 6.97585938 -43.70703125 7.80859375 C-43.74183594 8.42347656 -43.77664063 9.03835938 -43.8125 9.671875 C-42.97847656 8.98480469 -42.14445312 8.29773437 -41.28515625 7.58984375 C-29.25303886 -2.13565409 -15.02201208 -8.79578339 0 0 Z " fill="#2F2F2F" transform="translate(410.8125,5.328125)"/>
<path d="M0 0 C2 2 2 2 2.3125 4.4375 C2 7 2 7 0.76171875 8.64453125 C-1.47871032 10.36832036 -2.70393353 10.34320222 -5.5 10.25 C-6.66015625 10.22679687 -6.66015625 10.22679687 -7.84375 10.203125 C-10 10 -10 10 -13 9 C-16.09974821 8.74894664 -19.20362271 8.76877058 -22.3125 8.75 C-23.15490234 8.729375 -23.99730469 8.70875 -24.86523438 8.6875 C-29.99222251 8.65543127 -33.59498816 9.07698439 -38 12 C-40.32749345 15.49124017 -40.50299316 16.89222251 -40 21 C-37.24034723 24.39444455 -34.90176981 25.65163754 -30.7109375 26.74609375 C-29.68613281 27.02646484 -28.66132813 27.30683594 -27.60546875 27.59570312 C-26.53941406 27.87349609 -25.47335938 28.15128906 -24.375 28.4375 C-2.95791708 34.06312438 -2.95791708 34.06312438 3 43 C5.88538712 48.0837773 5.8740561 53.8230416 4.34765625 59.37109375 C1.88303746 65.64370724 -1.77108004 70.08439777 -7.98071289 72.8972168 C-13.81408486 74.93496143 -19.0904161 75.50728895 -25.25 75.4375 C-26.62381836 75.42940308 -26.62381836 75.42940308 -28.02539062 75.42114258 C-37.33250836 75.2137165 -46.2594194 73.51925201 -54 68 C-55.65745856 62.19889503 -55.65745856 62.19889503 -53.9375 59.0625 C-51.06590775 57.48775586 -49.25758771 57.63121649 -46 58 C-43.9382022 58.6790352 -41.9381779 59.46213587 -39.921875 60.265625 C-32.57972897 63.07116048 -22.79519924 63.27373733 -15.375 60.6875 C-11.81136384 59.25452961 -11.81136384 59.25452961 -10 56 C-9.41666667 52.5 -9.41666667 52.5 -10 49 C-13.34386802 46.5123694 -16.62767545 45.38324776 -20.640625 44.38671875 C-21.71183594 44.10763672 -22.78304687 43.82855469 -23.88671875 43.54101562 C-26.11144458 42.97643654 -28.33800248 42.41902353 -30.56640625 41.86914062 C-39.57659273 39.5005946 -47.74408317 36.10287178 -53 28 C-55.04074827 21.87775518 -54.91090345 14.55052965 -52.75 8.5 C-52.1725 7.675 -51.595 6.85 -51 6 C-50.46375 5.154375 -49.9275 4.30875 -49.375 3.4375 C-37.21147123 -9.04612164 -14.57129968 -7.28564984 0 0 Z " fill="#2E2E2E" transform="translate(55,7)"/>
<path d="M0 0 C1.69140625 1.4609375 1.69140625 1.4609375 2.87890625 5.0859375 C2.69140625 8.4609375 2.69140625 8.4609375 0.69140625 11.4609375 C-3.99335143 12.15866737 -6.97297592 11.27659862 -11.30859375 9.4609375 C-19.02899608 6.49808709 -27.350004 5.94563374 -35.3125 8.37890625 C-42.53914523 11.70682484 -46.60285819 16.09283869 -49.67797852 23.49414062 C-52.06420623 30.93643659 -51.48568281 41.05708939 -48.37109375 48.1484375 C-44.82264978 54.06587104 -39.52996262 56.88604605 -33.49609375 59.8359375 C-24.06444525 61.68528034 -15.99311743 60.5180602 -7.30859375 56.4609375 C-6.97859375 56.1309375 -6.64859375 55.8009375 -6.30859375 55.4609375 C-1.06808742 55.0052413 -1.06808742 55.0052413 1.56640625 56.5859375 C3.26593238 59.41848106 3.21981946 61.22440657 2.69140625 64.4609375 C-7.13389981 73.38832455 -18.1529402 74.59705635 -30.92578125 74.08203125 C-41.59111905 73.19606273 -51.12976416 67.44084967 -58.1015625 59.390625 C-65.64770221 48.27222307 -66.93491454 35.62544245 -64.83984375 22.53125 C-62.339867 12.9777674 -56.40778813 5.03606788 -48.30859375 -0.5390625 C-32.90827494 -8.88811174 -15.28516346 -9.02344175 0 0 Z " fill="#2E2E2E" transform="translate(132.30859375,8.5390625)"/>
<path d="M0 0 C2.6875 1.5625 2.6875 1.5625 4 4 C3.9375 7.625 3.9375 7.625 3 11 C-0.23170367 13.15446911 -1.90300128 13.40012052 -5.6875 13.875 C-13.38393394 15.08191968 -19.13241354 17.36530619 -24.68933105 23.01296997 C-27.3388567 27.02976387 -26.73899102 31.69606578 -26.62890625 36.34765625 C-26.63075424 37.43711044 -26.63260223 38.52656464 -26.63450623 39.64903259 C-26.6387505 43.12095763 -26.60461125 46.59084824 -26.5625 50.0625 C-26.52570248 53.53758109 -26.49798319 57.01139261 -26.50120544 60.48667908 C-26.50297346 62.64594046 -26.48177693 64.80537225 -26.43495178 66.96412659 C-26.43699864 74.21664959 -26.43699864 74.21664959 -29.30053711 78.20092773 C-32 80 -32 80 -35.6875 80 C-39 79 -39 79 -41 76 C-41.26069641 72.92602539 -41.26069641 72.92602539 -41.2746582 69.09765625 C-41.27976913 68.39977997 -41.28488007 67.70190369 -41.29014587 66.98287964 C-41.30404637 64.67599921 -41.30308501 62.36941733 -41.30078125 60.0625 C-41.30466754 58.45971566 -41.30900207 56.85693236 -41.31376648 55.25415039 C-41.32122937 51.89498556 -41.32093665 48.53592584 -41.31567383 45.17675781 C-41.30987475 40.86895858 -41.32682014 36.56158869 -41.3500185 32.25386047 C-41.36473823 28.94418822 -41.36563004 25.63461984 -41.36250877 22.32492065 C-41.36302273 20.73647205 -41.36827447 19.14801775 -41.37832069 17.55960083 C-41.39063605 15.3402297 -41.38392415 13.12170105 -41.37231445 10.90234375 C-41.37325859 9.00730103 -41.37325859 9.00730103 -41.3742218 7.07397461 C-41 4 -41 4 -39.6915741 2.09985352 C-36.74547408 0.18431315 -34.38831905 0.52444645 -31 1 C-27.3482406 4.26736368 -26.4471335 7.19331488 -26 12 C-25.278125 11.2575 -24.55625 10.515 -23.8125 9.75 C-16.65553058 2.75207435 -10.28877098 -1.54771256 0 0 Z " fill="#303030" transform="translate(187,2)"/>
<path d="M0 0 C2.6875 1.5625 2.6875 1.5625 4 4 C3.9375 7.625 3.9375 7.625 3 11 C-0.23170367 13.15446911 -1.90300128 13.40012052 -5.6875 13.875 C-13.38393394 15.08191968 -19.13241354 17.36530619 -24.68933105 23.01296997 C-27.3388567 27.02976387 -26.73899102 31.69606578 -26.62890625 36.34765625 C-26.63075424 37.43711044 -26.63260223 38.52656464 -26.63450623 39.64903259 C-26.6387505 43.12095763 -26.60461125 46.59084824 -26.5625 50.0625 C-26.52570248 53.53758109 -26.49798319 57.01139261 -26.50120544 60.48667908 C-26.50297346 62.64594046 -26.48177693 64.80537225 -26.43495178 66.96412659 C-26.43699837 74.21569326 -26.43699837 74.21569326 -29.30053711 78.20483398 C-32 80 -32 80 -35.6875 79.9375 C-39 79 -39 79 -41 77 C-41.26069641 74.00831604 -41.26069641 74.00831604 -41.2746582 70.11938477 C-41.27976913 69.41190094 -41.28488007 68.70441711 -41.29014587 67.97549438 C-41.30407561 65.63071291 -41.30308258 63.28622425 -41.30078125 60.94140625 C-41.30466644 59.31477244 -41.30900074 57.68813965 -41.31376648 56.06150818 C-41.32123603 52.64928908 -41.3209322 49.23717344 -41.31567383 45.82495117 C-41.30987928 41.44874439 -41.32680602 37.07296086 -41.3500185 32.69682407 C-41.3647395 29.33653785 -41.36562977 25.97635393 -41.36250877 22.61604118 C-41.36302285 21.00247293 -41.36827671 19.38889909 -41.37832069 17.77536201 C-41.39063606 15.5199637 -41.38392364 13.26539447 -41.37231445 11.01000977 C-41.37294388 9.72586685 -41.3735733 8.44172394 -41.3742218 7.1186676 C-41 4 -41 4 -39.69548035 2.08531189 C-36.82367038 0.24700718 -34.29462434 0.64700453 -31 1 C-28.79242641 2.62094564 -28.09637581 3.57403362 -27.48828125 6.26171875 C-27.40126953 7.46248047 -27.40126953 7.46248047 -27.3125 8.6875 C-27.21388672 9.89986328 -27.21388672 9.89986328 -27.11328125 11.13671875 C-27.07589844 11.75160156 -27.03851562 12.36648438 -27 13 C-26.525625 12.29875 -26.05125 11.5975 -25.5625 10.875 C-18.73268066 3.21227587 -10.30078128 -1.34952193 0 0 Z " fill="#303030" transform="translate(560,2)"/>
<path d="M0 0 C0.79921875 0.02707031 1.5984375 0.05414062 2.421875 0.08203125 C3.02515625 0.11683594 3.6284375 0.15164063 4.25 0.1875 C4.34271739 10.01023444 4.41377381 19.83286462 4.45724869 29.65594769 C4.4781155 34.21732233 4.50641641 38.77839738 4.55175781 43.33959961 C4.59524818 47.74219008 4.61914393 52.14449255 4.62950897 56.54728127 C4.63689464 58.22622015 4.6513173 59.90514344 4.67292023 61.58395958 C4.70199756 63.93742189 4.70595434 66.28969725 4.70410156 68.64331055 C4.72567322 69.68233017 4.72567322 69.68233017 4.74768066 70.74234009 C4.718035 74.22708994 4.2685005 76.15694936 2.44818115 79.16291809 C0.25 81.1875 0.25 81.1875 -3.375 81.125 C-6.75 80.1875 -6.75 80.1875 -8.75 78.1875 C-9.01742554 75.11988831 -9.01742554 75.11988831 -9.04052734 71.12329102 C-9.04724457 70.39630005 -9.05396179 69.66930908 -9.06088257 68.92028809 C-9.07992265 66.51059181 -9.08378967 64.10117312 -9.0859375 61.69140625 C-9.09236104 60.01993188 -9.09908906 58.34845866 -9.10610962 56.67698669 C-9.11809726 53.1706176 -9.1217889 49.66434714 -9.12060547 46.15795898 C-9.12040214 41.6605881 -9.14771127 37.16384818 -9.18214989 32.66662693 C-9.20436576 29.21369002 -9.20844466 25.76090627 -9.20738602 22.3079052 C-9.20974974 20.64966595 -9.21861647 18.99142296 -9.23405075 17.33325386 C-9.25360537 15.01541836 -9.24791568 12.69896028 -9.23583984 10.38110352 C-9.2401149 8.40159447 -9.2401149 8.40159447 -9.24447632 6.38209534 C-8.75 3.1875 -8.75 3.1875 -7.01651001 1.24961853 C-4.45199418 0.04785027 -2.81516586 -0.12419849 0 0 Z " fill="#76D50E" transform="translate(595.75,-0.1875)"/>
<path d="M0 0 C7.04128865 4.08394742 10.81973209 7.89322672 13.125 15.8125 C13.125 17.4625 13.125 19.1125 13.125 20.8125 C-1.725 20.8125 -16.575 20.8125 -31.875 20.8125 C-30.86786953 12.75545625 -29.38156974 7.75574852 -23.25 2.390625 C-16.71575917 -2.11800118 -7.42541983 -2.94685944 0 0 Z " fill="#FBFBFB" transform="translate(235.875,15.1875)"/>
<path d="M0 0 C5.34949105 3.19739695 9.32121837 7.39794704 11.7890625 13.15625 C12.4765625 16.09375 12.4765625 16.09375 12.4765625 21.09375 C-2.0434375 21.09375 -16.5634375 21.09375 -31.5234375 21.09375 C-31.5234375 13.61692298 -30.63391968 10.23552476 -25.58203125 5.1328125 C-18.37772694 -1.36830925 -9.51496236 -3.41713818 0 0 Z " fill="#FCFCFC" transform="translate(315.5234375,14.90625)"/>
<path d="M0 0 C5.72738435 2.5812003 9.36804285 6.95980822 12.74609375 12.12890625 C13.58203125 14.34765625 13.58203125 14.34765625 13.58203125 21.34765625 C-0.93796875 21.34765625 -15.45796875 21.34765625 -30.41796875 21.34765625 C-29.45017131 12.63747933 -28.7238345 9.08934693 -22.41796875 3.59765625 C-15.62132167 -1.49982906 -8.29286811 -2.23733275 0 0 Z " fill="#FCFCFC" transform="translate(479.41796875,14.65234375)"/>
<path d="M0 0 C2.25779211 1.61787583 2.91684971 2.51312552 3.38768005 5.27000427 C3.39308304 6.15728714 3.39848602 7.04457001 3.40405273 7.95874023 C3.41673691 8.96666122 3.42942108 9.97458221 3.44248962 11.01304626 C3.43955399 12.10057693 3.43661835 13.1881076 3.43359375 14.30859375 C3.4388356 15.4268605 3.44407745 16.54512726 3.44947815 17.69728088 C3.45590514 20.06355966 3.45455265 22.42987036 3.44604492 24.79614258 C3.43754104 28.42001184 3.46627936 32.04230243 3.49804688 35.66601562 C3.49965906 37.96354119 3.49908102 40.26106956 3.49609375 42.55859375 C3.50732773 43.64410019 3.51856171 44.72960663 3.53013611 45.8480072 C3.52075516 46.85908035 3.51137421 47.8701535 3.50170898 48.91186523 C3.50154282 49.7999437 3.50137665 50.68802216 3.50120544 51.60301208 C2.83658463 54.78152517 1.49450485 55.98875094 -1 58 C-3.5 58.5 -3.5 58.5 -6 58 C-8.49450485 55.98875094 -9.83658463 54.78152517 -10.50120544 51.60301208 C-10.50137161 50.71493362 -10.50153778 49.82685516 -10.50170898 48.91186523 C-10.51108994 47.90079208 -10.52047089 46.88971893 -10.53013611 45.8480072 C-10.51890213 44.76250076 -10.50766815 43.67699432 -10.49609375 42.55859375 C-10.49754898 41.43937027 -10.49900421 40.32014679 -10.50050354 39.16700745 C-10.49884433 36.80247391 -10.48728078 34.43792959 -10.46655273 32.07348633 C-10.43758082 28.44761479 -10.44594763 24.82320326 -10.45898438 21.19726562 C-10.45274764 18.90103454 -10.44435721 16.60480808 -10.43359375 14.30859375 C-10.43652939 13.22106308 -10.43946503 12.13353241 -10.44248962 11.01304626 C-10.42980545 10.00512527 -10.41712128 8.99720428 -10.40405273 7.95874023 C-10.39864975 7.07145737 -10.39324677 6.1841745 -10.38768005 5.27000427 C-9.38393415 -0.60728416 -5.20229899 -0.55738918 0 0 Z " fill="#70C80F" transform="translate(574,23)"/>
<path d="M0 0 C3.5 0.4375 3.5 0.4375 5.19165039 1.47460938 C7.22910701 4.53136459 6.94767668 7.72800366 6.93359375 11.28125 C6.9388356 12.04675171 6.94407745 12.81225342 6.94947815 13.60095215 C6.95589682 15.21816801 6.9545633 16.83543056 6.94604492 18.45263672 C6.93752956 20.92890347 6.96630278 23.40286719 6.99804688 25.87890625 C6.99965886 27.45052014 6.99908141 29.02213812 6.99609375 30.59375 C7.01294472 31.70478088 7.01294472 31.70478088 7.03013611 32.83825684 C6.98537595 36.13441102 6.94305709 37.95722259 4.66040039 40.43164062 C1.54303309 41.88305358 -0.26482278 41.47000337 -3.5 40.4375 C-6.00387771 38.01396455 -6.48026554 36.60669509 -6.88818359 33.109375 C-6.89325928 31.16804688 -6.89325928 31.16804688 -6.8984375 29.1875 C-6.90130768 28.49237305 -6.90417786 27.79724609 -6.90713501 27.08105469 C-6.90917134 25.61522606 -6.90367156 24.14936999 -6.89111328 22.68359375 C-6.8750516 20.44469223 -6.89097458 18.20759563 -6.91015625 15.96875 C-6.90817374 14.5416627 -6.9043299 13.11457651 -6.8984375 11.6875 C-6.89505371 10.39328125 -6.89166992 9.0990625 -6.88818359 7.765625 C-6.29050699 2.64139387 -5.21127391 0.65140924 0 0 Z " fill="#65B80F" transform="translate(547.5,39.5625)"/>
<path d="M0 0 C1.093125 0.763125 2.18625 1.52625 3.3125 2.3125 C13.07573843 8.32720011 23.86077679 8.59468322 35 9 C35 9.33 35 9.66 35 10 C23.45 10 11.9 10 0 10 C0 6.7 0 3.4 0 0 Z " fill="#EAEAEA" transform="translate(0,73)"/>
<path d="M0 0 C1.65 0 3.3 0 5 0 C5 25.08 5 50.16 5 76 C4.67 76 4.34 76 4 76 C3.99413376 75.09211227 3.98826752 74.18422455 3.98222351 73.24882507 C3.92435822 64.69950472 3.8523172 56.15044733 3.76428509 47.60138226 C3.71952682 43.20603449 3.68028294 38.81078059 3.65356445 34.4152832 C3.6275856 30.174634 3.58722224 25.93434495 3.53681374 21.69391823 C3.5201082 20.07482184 3.50861692 18.45566311 3.50238609 16.83649254 C3.49278469 14.57119217 3.46477514 12.30682086 3.43237305 10.04174805 C3.42126999 8.75157272 3.41016693 7.4613974 3.39872742 6.13212585 C3.27350297 3.0053116 3.27350297 3.0053116 1.47297668 1.05989075 C0.98689438 0.7101268 0.50081207 0.36036285 0 0 Z " fill="#A8E470" transform="translate(595,0)"/>
<path d="M0 0 C0 3.58912412 -0.66436554 4.10857029 -3 6.6875 C-3.556875 7.31011719 -4.11375 7.93273437 -4.6875 8.57421875 C-5.120625 9.04472656 -5.55375 9.51523437 -6 10 C-6.66 9.67 -7.32 9.34 -8 9 C-7.04663979 7.68388323 -6.08714226 6.37221039 -5.125 5.0625 C-4.59132813 4.33160156 -4.05765625 3.60070312 -3.5078125 2.84765625 C-2 1 -2 1 0 0 Z " fill="#343434" transform="translate(10,7)"/>
</svg>
